<svg xmlns="http://www.w3.org/2000/svg" width="59.718" height="59.744" viewBox="0 0 59.718 59.744">
  <g id="ship" transform="translate(-85.353 -85.3)" opacity="0.59">
    <g id="Grupo_1149" data-name="Grupo 1149" transform="translate(85.361 85.317)">
      <path id="Trazado_974" data-name="Trazado 974" d="M180.261,203.38h-3.726V196.96h-9.342a1.871,1.871,0,0,1-1.592-.892,1.918,1.918,0,0,1-.087-1.819l11.2-22.393a1.881,1.881,0,0,1,2.1-.98,1.857,1.857,0,0,1,1.435,1.819Zm-10.042-10.147h6.316V180.62Z" transform="translate(-151.342 -155.882)" fill="#5069a0"/>
      <circle id="Elipse_40" data-name="Elipse 40" cx="9.325" cy="9.325" r="9.325" transform="translate(0 0)" fill="#5069a0"/>
    </g>
    <path id="Trazado_975" data-name="Trazado 975" d="M143.2,130.086H132.772A24.25,24.25,0,0,0,119.861,85.3a1.874,1.874,0,0,0-1.872,1.872v13.873a1.874,1.874,0,0,0,1.872,1.872h0a1.874,1.874,0,0,0,1.872-1.872V89.131a20.527,20.527,0,0,1,0,40.885V118.1a1.874,1.874,0,0,0-1.872-1.872h0a1.874,1.874,0,0,0-1.872,1.872v12H93.741a1.851,1.851,0,0,0-1.61.927l-6.526,11.2a1.884,1.884,0,0,0,.262,2.239,1.915,1.915,0,0,0,1.4.577H132a13.085,13.085,0,0,0,13.069-13.086A1.874,1.874,0,0,0,143.2,130.086Zm-11.2,11.2H90.47l4.356-7.47h46.326A9.344,9.344,0,0,1,132,141.283Z" transform="translate(0)" fill="#153272"/>
  </g>
</svg>
