<svg xmlns="http://www.w3.org/2000/svg" width="52.709" height="52.737" viewBox="0 0 52.709 52.737">
  <g id="airplane" transform="translate(-85.382 -85.338)" opacity="0.59">
    <path id="Trazado_937" data-name="Trazado 937" d="M200.533,103.637l-2.333,2.333,2.333,2.333,2.333-2.333a1.65,1.65,0,0,0-2.333-2.333Z" transform="translate(-95.389 -15.06)" fill="#5069a0"/>
    <path id="Trazado_938" data-name="Trazado 938" d="M247.833,116.737l-2.333,2.333,2.333,2.333,2.333-2.333a1.65,1.65,0,1,0-2.333-2.333Z" transform="translate(-135.382 -26.136)" fill="#5069a0"/>
    <path id="Trazado_939" data-name="Trazado 939" d="M132.514,109.713l-23-6.334a1.662,1.662,0,0,0-1.607.417l-4.14,4.14a1.661,1.661,0,0,0-.463,1.421,1.586,1.586,0,0,0,.881,1.205l7.153,3.661a.753.753,0,0,0,.108.046,1.6,1.6,0,0,0,.664.139,1.622,1.622,0,0,0,1.622-1.622,1.644,1.644,0,0,0-.834-1.421h0l-3.569-1.869a1.347,1.347,0,0,1-.34-2.147h0a1.306,1.306,0,0,1,1.3-.34l21.335,5.871a1.339,1.339,0,0,0,1.653-.942l.17-.587A1.326,1.326,0,0,0,132.514,109.713Z" transform="translate(-15.135 -15.204)" fill="#5069a0"/>
    <g id="Grupo_1130" data-name="Grupo 1130" transform="translate(85.382 85.338)">
      <g id="Grupo_1126" data-name="Grupo 1126" transform="translate(42.797 22.836)">
        <path id="Trazado_940" data-name="Trazado 940" d="M380.166,280.937a1.641,1.641,0,0,0-2.333,0l-2.333,2.333,2.333,2.333,2.333-2.333A1.641,1.641,0,0,0,380.166,280.937Z" transform="translate(-373.476 -273.143)" fill="#5069a0"/>
        <path id="Trazado_941" data-name="Trazado 941" d="M367.066,235.969a1.65,1.65,0,0,0-2.333-2.333l-2.333,2.333,2.333,2.333Z" transform="translate(-362.4 -233.15)" fill="#5069a0"/>
      </g>
      <g id="Grupo_1129" data-name="Grupo 1129" transform="translate(0 0)">
        <g id="Grupo_1127" data-name="Grupo 1127" transform="translate(12.13 14.115)">
          <path id="Trazado_942" data-name="Trazado 942" d="M163.9,178.2" transform="translate(-163.9 -177.968)" fill="#5069a0"/>
          <path id="Trazado_943" data-name="Trazado 943" d="M196.1,179.883l6.581,3.368a.563.563,0,0,0,.757-.247l.989-1.931a.563.563,0,0,0-.247-.757l-6.736-3.445a1.554,1.554,0,0,0-2.086.664h0A1.709,1.709,0,0,0,196.1,179.883Z" transform="translate(-190.326 -176.7)" fill="#5069a0"/>
          <path id="Trazado_944" data-name="Trazado 944" d="M309.391,235.4,302.7,211.1l-3.182.881,6.442,23.374-1.854,1.854-9.872-19.3-2.935,1.5,10.892,21.32a1.719,1.719,0,0,0,1.2.881,1.5,1.5,0,0,0,.263.015,1.637,1.637,0,0,0,1.159-.479l4.14-4.14a1.67,1.67,0,0,0,.433-1.607Z" transform="translate(-271.618 -205.786)" fill="#5069a0"/>
        </g>
        <g id="Grupo_1128" data-name="Grupo 1128">
          <path id="Trazado_945" data-name="Trazado 945" d="M104.093,138.076a1.169,1.169,0,0,1-.232-.015,1.661,1.661,0,0,1-1.205-.834l-5.84-10.583L86.234,120.8A1.661,1.661,0,0,1,85.4,119.6a1.6,1.6,0,0,1,.463-1.39l2.889-2.889a1.627,1.627,0,0,1,1.607-.417l8.5,2.333,22.478-26.387a15.843,15.843,0,0,1,11.077-5.5,5.36,5.36,0,0,1,5.67,5.67,15.7,15.7,0,0,1-4.588,10.243,11.669,11.669,0,0,1-.911.834L106.241,124.6l2.333,8.482a1.662,1.662,0,0,1-.417,1.607l-2.9,2.889a1.59,1.59,0,0,1-1.159.494ZM89.741,118.965l9.084,5.006a1.639,1.639,0,0,1,.649.649l5.006,9.084.664-.664-2.364-8.574a1.616,1.616,0,0,1,.525-1.684l27.16-23.174c.247-.216.494-.433.711-.664a12.456,12.456,0,0,0,3.631-8.111,2.1,2.1,0,0,0-.6-1.591,1.927,1.927,0,0,0-1.591-.6A12.493,12.493,0,0,0,123.853,93l-23.174,27.16A1.654,1.654,0,0,1,99,120.68l-8.59-2.364Z" transform="translate(-85.382 -85.338)" fill="#153272"/>
        </g>
      </g>
    </g>
  </g>
</svg>
