<svg xmlns="http://www.w3.org/2000/svg" width="59.188" height="57.749" viewBox="0 0 59.188 57.749">
  <g id="airplaneANDTRAVEL" transform="translate(-60.882 -85.338)">
    <path id="Trazado_946" data-name="Trazado 946" d="M176.2,103.65l-2.4,2.4,2.4,2.4,2.4-2.4a1.7,1.7,0,1,0-2.4-2.4Z" transform="translate(-94.977 -14.982)" fill="#e82d56"/>
    <path id="Trazado_947" data-name="Trazado 947" d="M223.4,116.75l-2.4,2.4,2.4,2.4,2.4-2.4a1.7,1.7,0,1,0-2.4-2.4Z" transform="translate(-134.678 -26)" fill="#e82d56"/>
    <path id="Trazado_948" data-name="Trazado 948" d="M108.846,109.895l-23.658-6.514a1.71,1.71,0,0,0-1.652.429l-4.258,4.258a1.708,1.708,0,0,0-.477,1.462,1.631,1.631,0,0,0,.906,1.239l7.356,3.766a.775.775,0,0,0,.111.048,1.645,1.645,0,0,0,.683.143,1.668,1.668,0,0,0,1.668-1.668,1.69,1.69,0,0,0-.858-1.462h0l-3.654-1.923a1.386,1.386,0,0,1-.35-2.209h0a1.343,1.343,0,0,1,1.335-.35l21.942,6.038a1.377,1.377,0,0,0,1.7-.969l.175-.6A1.386,1.386,0,0,0,108.846,109.895Z" transform="translate(-15.056 -15.125)" fill="#b8c7e9"/>
    <g id="Grupo_1135" data-name="Grupo 1135" transform="translate(60.882 85.338)">
      <g id="Grupo_1131" data-name="Grupo 1131" transform="translate(46.112 31.001)">
        <path id="Trazado_949" data-name="Trazado 949" d="M355.9,280.951a1.688,1.688,0,0,0-2.4,0l-2.4,2.4,2.4,2.4,2.4-2.4A1.717,1.717,0,0,0,355.9,280.951Z" transform="translate(-351.1 -280.45)" fill="#ff0080"/>
      </g>
      <g id="Grupo_1134" data-name="Grupo 1134" transform="translate(0 0)">
        <g id="Grupo_1132" data-name="Grupo 1132" transform="translate(12.476 14.516)">
          <path id="Trazado_950" data-name="Trazado 950" d="M139.4,178.2" transform="translate(-139.4 -177.962)" fill="#b8c7e9"/>
          <path id="Trazado_951" data-name="Trazado 951" d="M171.669,179.973l6.769,3.464a.579.579,0,0,0,.779-.254l1.017-1.986a.579.579,0,0,0-.254-.779l-6.927-3.543a1.6,1.6,0,0,0-2.145.683h0A1.77,1.77,0,0,0,171.669,179.973Z" transform="translate(-165.726 -176.7)" fill="#b8c7e9"/>
          <path id="Trazado_952" data-name="Trazado 952" d="M285.406,236.093l-6.88-24.993-3.273.906,6.626,24.04-1.907,1.907-10.153-19.845-3.019,1.541L278,241.575a1.769,1.769,0,0,0,1.239.906,1.542,1.542,0,0,0,.27.016A1.684,1.684,0,0,0,280.7,242l4.258-4.258a1.681,1.681,0,0,0,.445-1.652Z" transform="translate(-246.558 -205.634)" fill="#b8c7e9"/>
        </g>
        <g id="Grupo_1133" data-name="Grupo 1133">
          <path id="Trazado_953" data-name="Trazado 953" d="M80.126,139.576a1.2,1.2,0,0,1-.238-.016,1.709,1.709,0,0,1-1.239-.858l-6.006-10.884-10.884-6.006a1.708,1.708,0,0,1-.858-1.239,1.645,1.645,0,0,1,.477-1.43l2.971-2.971A1.673,1.673,0,0,1,66,115.743l8.739,2.4L97.874,91a16.294,16.294,0,0,1,11.392-5.656,5.512,5.512,0,0,1,5.831,5.831,16.148,16.148,0,0,1-4.719,10.534,12,12,0,0,1-.937.858l-27.106,23.15,2.4,8.723A1.71,1.71,0,0,1,84.3,136.1l-2.971,2.971a1.67,1.67,0,0,1-1.208.508ZM65.365,119.922l9.343,5.148a1.685,1.685,0,0,1,.667.667l5.148,9.343.683-.683-2.431-8.818a1.662,1.662,0,0,1,.54-1.732l27.932-23.833c.254-.222.508-.445.731-.683a12.81,12.81,0,0,0,3.734-8.342,2.164,2.164,0,0,0-.62-1.637,1.982,1.982,0,0,0-1.637-.62,12.848,12.848,0,0,0-9.009,4.481L76.614,121.145a1.7,1.7,0,0,1-1.732.54l-8.834-2.431Z" transform="translate(-60.882 -85.338)" fill="#0036b0"/>
        </g>
      </g>
    </g>
    <rect id="Rectángulo_281" data-name="Rectángulo 281" width="7.118" height="6.308" transform="translate(105.182 109.006)" fill="#fff"/>
    <g id="Grupo_1138" data-name="Grupo 1138" transform="translate(97.858 108.196)">
      <g id="Grupo_1137" data-name="Grupo 1137" transform="translate(0.826 1.589)">
        <rect id="Rectángulo_282" data-name="Rectángulo 282" width="20.115" height="24.453" transform="translate(0 5.529)" fill="#fff"/>
        <g id="Grupo_1136" data-name="Grupo 1136" transform="translate(1.398)">
          <path id="Trazado_954" data-name="Trazado 954" d="M324.474,281.1H308.49a1.037,1.037,0,0,0-.89,1.112V302.2a1.037,1.037,0,0,0,.89,1.112h15.984a1.037,1.037,0,0,0,.89-1.112V282.212A1.026,1.026,0,0,0,324.474,281.1Zm-11.313,18.876h-2.224V284.437h2.224Zm4.433,0H315.37V284.437h2.224Zm4.449,0h-2.224V284.437h2.224Z" transform="translate(-307.6 -274.443)" fill="none"/>
          <rect id="Rectángulo_283" data-name="Rectángulo 283" width="4.433" height="4.433" transform="translate(6.657)" fill="none"/>
          <path id="Trazado_955" data-name="Trazado 955" d="M398.6,434.3a1.634,1.634,0,0,0-.1.556,1.668,1.668,0,1,0,3.337,0,1.7,1.7,0,0,0-.127-.651,2.914,2.914,0,0,1-.747.1Z" transform="translate(-384.057 -403.217)" fill="#e82d56"/>
          <path id="Trazado_956" data-name="Trazado 956" d="M307.827,434.2a1.828,1.828,0,0,0-.127.651,1.668,1.668,0,1,0,3.337,0,1.637,1.637,0,0,0-.1-.556H308.59A2.951,2.951,0,0,1,307.827,434.2Z" transform="translate(-307.684 -403.217)" fill="#e82d56"/>
          <path id="Trazado_957" data-name="Trazado 957" d="M400.573,427.8A1.668,1.668,0,0,0,399,428.912h2.352a2.917,2.917,0,0,0,.747-.1A1.643,1.643,0,0,0,400.573,427.8Z" transform="translate(-384.478 -397.834)" fill="#2f00b0"/>
          <path id="Trazado_958" data-name="Trazado 958" d="M310.025,427.8a1.652,1.652,0,0,0-1.525,1.017,2.917,2.917,0,0,0,.747.1H311.6A1.69,1.69,0,0,0,310.025,427.8Z" transform="translate(-308.357 -397.834)" fill="#2f00b0"/>
          <rect id="Rectángulo_284" data-name="Rectángulo 284" width="2.224" height="15.539" transform="translate(3.337 9.994)" fill="#b8c7e9"/>
          <rect id="Rectángulo_285" data-name="Rectángulo 285" width="2.224" height="15.539" transform="translate(7.77 9.994)" fill="#b8c7e9"/>
          <rect id="Rectángulo_286" data-name="Rectángulo 286" width="2.224" height="15.539" transform="translate(12.218 9.994)" fill="#b8c7e9"/>
        </g>
      </g>
      <path id="Trazado_959" data-name="Trazado 959" d="M312.666,267.5h-15.92a3.143,3.143,0,0,0-3.146,3.146v20.306a3.143,3.143,0,0,0,3.146,3.146h15.92a3.143,3.143,0,0,0,3.146-3.146V270.646A3.153,3.153,0,0,0,312.666,267.5Zm.922,22.244a1.685,1.685,0,0,1-1.684,1.684H297.525a1.685,1.685,0,0,1-1.684-1.684V271.853a1.685,1.685,0,0,1,1.684-1.684H311.9a1.685,1.685,0,0,1,1.684,1.684Z" transform="translate(-293.6 -261.415)" fill="#0036b0"/>
      <path id="Trazado_960" data-name="Trazado 960" d="M337.724,231.424h4.433v4.433h2.224v-5.545a1.105,1.105,0,0,0-1.112-1.112h-6.657a1.105,1.105,0,0,0-1.112,1.112v5.545h2.224Z" transform="translate(-328.843 -229.2)" fill="#0036b0"/>
    </g>
  </g>
</svg>
