<svg xmlns="http://www.w3.org/2000/svg" width="67.599" height="58.273" viewBox="0 0 67.599 58.273">
  <g id="hotel_2_" data-name="hotel (2)" transform="translate(-85.3 -132.4)">
    <g id="Grupo_1148" data-name="Grupo 1148" transform="translate(108.526 132.4)">
      <g id="Grupo_1145" data-name="Grupo 1145" transform="translate(3.188 13.92)">
        <g id="Grupo_1139" data-name="Grupo 1139">
          <path id="Trazado_961" data-name="Trazado 961" d="M218.7,202.7h6.336v8.455H218.7Z" transform="translate(-218.7 -202.7)" fill="#b8c7e9"/>
        </g>
        <g id="Grupo_1140" data-name="Grupo 1140" transform="translate(8.435)">
          <path id="Trazado_962" data-name="Trazado 962" d="M261.3,202.7h6.336v8.455H261.3Z" transform="translate(-261.3 -202.7)" fill="#b8c7e9"/>
        </g>
        <g id="Grupo_1141" data-name="Grupo 1141" transform="translate(0 10.554)">
          <path id="Trazado_963" data-name="Trazado 963" d="M218.7,256h6.336v8.455H218.7Z" transform="translate(-218.7 -256)" fill="#b8c7e9"/>
        </g>
        <g id="Grupo_1142" data-name="Grupo 1142" transform="translate(8.435 10.554)">
          <path id="Trazado_964" data-name="Trazado 964" d="M261.3,256h6.336v8.455H261.3Z" transform="translate(-261.3 -256)" fill="#b8c7e9"/>
        </g>
        <g id="Grupo_1143" data-name="Grupo 1143" transform="translate(0 21.107)">
          <path id="Trazado_965" data-name="Trazado 965" d="M218.7,309.3h6.336v8.455H218.7Z" transform="translate(-218.7 -309.3)" fill="#b8c7e9"/>
        </g>
        <g id="Grupo_1144" data-name="Grupo 1144" transform="translate(8.435 21.107)">
          <path id="Trazado_966" data-name="Trazado 966" d="M261.3,309.3h6.336v8.455H261.3Z" transform="translate(-261.3 -309.3)" fill="#b8c7e9"/>
        </g>
      </g>
      <g id="Grupo_1146" data-name="Grupo 1146" transform="translate(6.356 45.601)">
        <path id="Trazado_967" data-name="Trazado 967" d="M234.7,362.7h8.455v12.672H234.7Z" transform="translate(-234.7 -362.7)" fill="#b8c7e9"/>
      </g>
      <g id="Grupo_1147" data-name="Grupo 1147" transform="translate(0 0)">
        <path id="Trazado_968" data-name="Trazado 968" d="M204.719,132.4l-.653,1.386L202.6,134l1.049,1.089-.257,1.525,1.307-.713,1.307.713-.257-1.525L206.8,134l-1.465-.218Z" transform="translate(-202.6 -132.4)" fill="#e82d56"/>
        <path id="Trazado_969" data-name="Trazado 969" d="M226.119,132.4l-.653,1.386L224,134l1.049,1.089-.257,1.525,1.307-.713,1.307.713-.238-1.525L228.218,134l-1.465-.218Z" transform="translate(-219.763 -132.4)" fill="#e82d56"/>
        <path id="Trazado_970" data-name="Trazado 970" d="M247.419,132.4l-.653,1.386L245.3,134l1.049,1.089-.257,1.525,1.307-.713,1.307.713-.257-1.525L249.5,134l-1.465-.218Z" transform="translate(-236.845 -132.4)" fill="#e82d56"/>
        <path id="Trazado_971" data-name="Trazado 971" d="M268.719,132.4l-.653,1.386L266.6,134l1.049,1.089-.257,1.525,1.307-.713,1.307.713-.257-1.525L270.8,134l-1.465-.218Z" transform="translate(-253.928 -132.4)" fill="#e82d56"/>
        <path id="Trazado_972" data-name="Trazado 972" d="M292.137,134l-1.465-.218-.653-1.386-.653,1.386L287.9,134l1.049,1.089-.257,1.525L290,135.9l1.307.713-.218-1.525Z" transform="translate(-271.01 -132.4)" fill="#e82d56"/>
      </g>
    </g>
    <path id="Trazado_973" data-name="Trazado 973" d="M150.781,177.886h-16.89V160.719a2.121,2.121,0,0,0-2.119-2.119H106.427a2.121,2.121,0,0,0-2.119,2.119v9.306a2.121,2.121,0,0,0,2.119,2.119h0a2.121,2.121,0,0,0,2.119-2.119v-7.188h21.127v44.611H108.546V182.975a2.121,2.121,0,0,0-2.119-2.119h0a2.121,2.121,0,0,0-2.119,2.119v3.366H87.419a2.121,2.121,0,0,0-2.119,2.119v21.107a2.121,2.121,0,0,0,2.119,2.119h63.362a2.121,2.121,0,0,0,2.119-2.119V180A2.121,2.121,0,0,0,150.781,177.886Zm-46.472,29.562h-4.218v-8.455H93.755v8.455H89.537v-16.89h14.791v16.89Zm44.353,0h-4.218v-8.455h-6.336v8.455h-4.218V182.1h14.791v25.345Z" transform="translate(0 -21.012)" fill="#0036b0"/>
  </g>
</svg>
