<svg xmlns="http://www.w3.org/2000/svg" xmlns:xlink="http://www.w3.org/1999/xlink" width="67" height="60" viewBox="0 0 67 60">
  <defs>
    <clipPath id="clip-custom_1">
      <rect width="67" height="60"/>
    </clipPath>
  </defs>
  <g id="custom_1" data-name="custom – 1" clip-path="url(#clip-custom_1)">
    <g id="Grupo_1724" data-name="Grupo 1724" transform="translate(464.853 -47.164)" opacity="0.59">
      <path id="Trazado_1131" data-name="Trazado 1131" d="M-409.914,99.9h0a22.821,22.821,0,0,0-5.825-6.772,26.653,26.653,0,0,0-14.173-22.081l18.664-1.717a1.692,1.692,0,0,0,1.413-1.049,1.681,1.681,0,0,0-.286-1.733,17.709,17.709,0,0,0-15.093-6.152,18.616,18.616,0,0,0-2.984.541L-419.945,51a1.706,1.706,0,0,0,.254-1.749,1.671,1.671,0,0,0-1.428-1.033,17.706,17.706,0,0,0-15.014,6.343,17.7,17.7,0,0,0-3.73,7.869,17.688,17.688,0,0,0-7-5.151,17.684,17.684,0,0,0-16.22,1.542,1.708,1.708,0,0,0-.762,1.59,1.7,1.7,0,0,0,1.047,1.415l3.7,1.494a2.083,2.083,0,0,0,2.381-.588h0a1.476,1.476,0,0,0-.571-2.337l-.7-.286h0a14.312,14.312,0,0,1,9.856.318,14.362,14.362,0,0,1,6.65,5.485q.357.548.667,1.145l-8.3-3.354-2.174-.843a1.7,1.7,0,0,0-2.032.652h0a1.767,1.767,0,0,0,.873,2.639l3.174,1.145a16.98,16.98,0,0,0-3.952,1.876A17.8,17.8,0,0,0-461.4,83.3a1.7,1.7,0,0,0,.841,1.542,1.662,1.662,0,0,0,1.127.207,1.633,1.633,0,0,0,.635-.238l20.283-12.956A22.979,22.979,0,0,1-431.9,88.1c0,.191,0,.366-.016.556A22.211,22.211,0,0,0-448.735,99.9a1.722,1.722,0,0,0,.016,1.685,1.679,1.679,0,0,0,1.46.843h35.885a1.7,1.7,0,0,0,1.476-.843A1.809,1.809,0,0,0-409.914,99.9Zm-47.5-20.015h0a14.377,14.377,0,0,1,5.983-7.853,14.344,14.344,0,0,1,5.317-2.051h0a13.339,13.339,0,0,1,2.254-.191c.254,0,.508,0,.762.016l.9.366Zm20.585-13.847a14.282,14.282,0,0,1,2.19-7.758,14.871,14.871,0,0,1,1.127-1.558,14.379,14.379,0,0,1,8.539-4.96h0l-11.856,14.276Zm3.031,1.971a14.312,14.312,0,0,1,8.9-4.245,12.179,12.179,0,0,1,1.317-.064h0a14.308,14.308,0,0,1,8.221,2.607l-18.442,1.7Zm.809,5.326h0a24.055,24.055,0,0,1,4.9,2.909,24.107,24.107,0,0,1,1.92,1.669c.206.191.4.4.6.6h0a22.925,22.925,0,0,1,2.682,3.37h0a22.317,22.317,0,0,1,1.857,3.434,23.186,23.186,0,0,1,1.635,5.532h0a22.609,22.609,0,0,0-4.65-1.7,21.814,21.814,0,0,0-4.206-.6h-.032c-.079,0-.159-.016-.238-.016h-.016V88.1a27.055,27.055,0,0,0-.6-5.691,26.365,26.365,0,0,0-1.079-3.672A26.348,26.348,0,0,0-432.991,73.335Zm18.426,25.706h-29.568a18.918,18.918,0,0,1,11.872-6.931,19.684,19.684,0,0,1,2.9-.223h0c.19,0,.349,0,.54.016a18.5,18.5,0,0,1,9.713,3.036,12.279,12.279,0,0,1,1.587,1.161,17.822,17.822,0,0,1,2.952,2.941Z" fill="#153272"/>
      <g id="Grupo_1621" data-name="Grupo 1621" transform="translate(-458.004 51.772)">
        <path id="Trazado_1132" data-name="Trazado 1132" d="M-417.144,119.788a14.356,14.356,0,0,1,6.65,5.476,14.356,14.356,0,0,0-6.65-5.476A14.334,14.334,0,0,0-427,119.47h0A14.427,14.427,0,0,1-417.144,119.788Z" transform="translate(427 -111.137)" fill="none"/>
        <path id="Trazado_1133" data-name="Trazado 1133" d="M-206.551,289.5c-.429.587-.889,1.159-1.349,1.7C-207.44,290.643-206.979,290.087-206.551,289.5Z" transform="translate(242.674 -254.737)" fill="none"/>
        <path id="Trazado_1134" data-name="Trazado 1134" d="M-256.058,148.5a14.324,14.324,0,0,0-8.221-2.6h0a14.324,14.324,0,0,1,8.221,2.6l-18.442,1.7h0Z" transform="translate(298.703 -133.972)" fill="none"/>
        <path id="Trazado_1135" data-name="Trazado 1135" d="M-239.668,266.934h0c.333-.3.651-.6.968-.9a28.189,28.189,0,0,0,4.4-5.729,22.272,22.272,0,0,1,1.857,3.428h0a23.121,23.121,0,0,1,1.635,5.523h0a23.339,23.339,0,0,0-1.635-5.523A23.846,23.846,0,0,0-234.3,260.3h0a28.189,28.189,0,0,1-4.4,5.729C-239.018,266.347-239.351,266.648-239.668,266.934Z" transform="translate(269.427 -230.17)" fill="none"/>
        <path id="Trazado_1136" data-name="Trazado 1136" d="M-279.8,103.555A14.855,14.855,0,0,1-278.673,102,11.728,11.728,0,0,0-279.8,103.555Z" transform="translate(303.162 -97.064)" fill="none"/>
        <path id="Trazado_1137" data-name="Trazado 1137" d="M-293.605,119.545h0a14.241,14.241,0,0,1,2.19-7.745A14.241,14.241,0,0,0-293.605,119.545Z" transform="translate(314.777 -105.309)" fill="none"/>
        <path id="Trazado_1138" data-name="Trazado 1138" d="M-409.746,184.165c.254,0,.508,0,.762.016l.9.365-15.22,9.7h0l15.22-9.7-.9-.365A6.1,6.1,0,0,0-409.746,184.165Z" transform="translate(423.887 -166.14)" fill="none"/>
        <path id="Trazado_1139" data-name="Trazado 1139" d="M-264.261,70.9h0a14.384,14.384,0,0,0-8.539,4.952A14.226,14.226,0,0,1-264.261,70.9Z" transform="translate(297.273 -70.9)" fill="none"/>
        <path id="Trazado_1140" data-name="Trazado 1140" d="M-265.559,215.547a26.97,26.97,0,0,1,.6,5.682v.429h0v-.429a25.223,25.223,0,0,0-.6-5.682h0a26.288,26.288,0,0,0-1.079-3.666A31.5,31.5,0,0,0-264.5,209.4a24.083,24.083,0,0,1,1.92,1.666,24.083,24.083,0,0,0-1.92-1.666,31.5,31.5,0,0,1-2.143,2.476,26.511,26.511,0,0,0-2.762-5.38h0a25.729,25.729,0,0,1,2.762,5.38A24.3,24.3,0,0,1-265.559,215.547Z" transform="translate(294.413 -184.919)" fill="none"/>
        <path id="Trazado_1141" data-name="Trazado 1141" d="M-234.56,327.306a13.981,13.981,0,0,0-1.587-1.159,18.517,18.517,0,0,0-9.713-3.031c-.19-.016-.349-.016-.54-.016h0c.19,0,.349,0,.54.016a18.517,18.517,0,0,1,9.713,3.031,13.981,13.981,0,0,1,1.587,1.159h0a18.364,18.364,0,0,1,2.92,2.952h0A18.364,18.364,0,0,0-234.56,327.306Z" transform="translate(275.063 -282.984)" fill="none"/>
        <path id="Trazado_1142" data-name="Trazado 1142" d="M-244.053,241.973h0q-.548.548-1.048,1h0a26.971,26.971,0,0,1,.6,5.682v.429h.016c.079,0,.159.016.238.016h.032c.333-.3.651-.6.968-.9a28.189,28.189,0,0,0,4.4-5.729,22.9,22.9,0,0,0-2.682-3.365A30.827,30.827,0,0,1-244.053,241.973Z" transform="translate(273.97 -212.341)" fill="none"/>
        <path id="Trazado_1143" data-name="Trazado 1143" d="M-264.279,145.9a12.4,12.4,0,0,0-1.317.063,14.322,14.322,0,0,0-8.9,4.238l18.442-1.7A14.324,14.324,0,0,0-264.279,145.9Z" transform="translate(298.703 -133.972)" fill="none"/>
        <path id="Trazado_1144" data-name="Trazado 1144" d="M-209.984,281.9h0c-.27.413-.555.809-.857,1.206-.429.587-.889,1.159-1.349,1.7-.27.3-.54.619-.809.9a22.63,22.63,0,0,1,4.65,1.7,23.214,23.214,0,0,0-1.635-5.507Z" transform="translate(246.964 -248.34)" fill="none"/>
        <path id="Trazado_1145" data-name="Trazado 1145" d="M-290.384,75.836a15.514,15.514,0,0,0-1.127,1.555,14.417,14.417,0,0,0-2.19,7.745l11.84-14.236A14.289,14.289,0,0,0-290.384,75.836Z" transform="translate(314.858 -70.9)" fill="none"/>
        <path id="Trazado_1146" data-name="Trazado 1146" d="M-409.084,184.116c-.254-.016-.508-.016-.762-.016a13.359,13.359,0,0,0-2.254.19,14.253,14.253,0,0,0-5.317,2.047,14.356,14.356,0,0,0-5.983,7.84l15.22-9.7Z" transform="translate(423.971 -166.091)" fill="none"/>
        <path id="Trazado_1147" data-name="Trazado 1147" d="M-264.5,209.4a22.7,22.7,0,0,0-4.9-2.9,25.729,25.729,0,0,1,2.762,5.38A24.184,24.184,0,0,0-264.5,209.4Z" transform="translate(294.413 -184.933)" fill="none"/>
        <path id="Trazado_1148" data-name="Trazado 1148" d="M-312.884,327.306h0a13.977,13.977,0,0,0-1.587-1.159,18.517,18.517,0,0,0-9.713-3.031c-.19-.016-.349-.016-.54-.016a19.389,19.389,0,0,0-2.9.222,19.036,19.036,0,0,0-11.872,6.92h29.552A19.753,19.753,0,0,0-312.884,327.306Z" transform="translate(353.387 -282.984)" fill="none"/>
        <path id="Trazado_1149" data-name="Trazado 1149" d="M-252,227.276a26.3,26.3,0,0,1,1.079,3.666q.524-.476,1.047-1a30.829,30.829,0,0,0,2.523-2.873c-.19-.206-.4-.4-.6-.6a24.086,24.086,0,0,0-1.92-1.666A22.215,22.215,0,0,1-252,227.276Z" transform="translate(279.774 -200.321)" fill="#5069a0"/>
        <path id="Trazado_1150" data-name="Trazado 1150" d="M-244.053,241.973h0a30.827,30.827,0,0,0,2.523-2.873h0a30.827,30.827,0,0,1-2.523,2.873q-.548.548-1.048,1h0Q-244.6,242.52-244.053,241.973Z" transform="translate(273.97 -212.35)" fill="#cac5ff"/>
        <path id="Trazado_1151" data-name="Trazado 1151" d="M-235.294,267.537l.809-.9c.476-.555.921-1.127,1.349-1.7.3-.4.587-.794.857-1.206a23.846,23.846,0,0,0-1.857-3.428,28.188,28.188,0,0,1-4.4,5.729c-.317.317-.635.619-.968.9a21.848,21.848,0,0,1,4.206.6Z" transform="translate(269.258 -230.173)" fill="#5069a0"/>
        <path id="Trazado_1152" data-name="Trazado 1152" d="M-198.543,281.9h0c-.27.413-.555.809-.857,1.206C-199.1,282.709-198.813,282.313-198.543,281.9Z" transform="translate(235.523 -248.347)" fill="#cac5ff"/>
        <path id="Trazado_1153" data-name="Trazado 1153" d="M-240.962,302.016c-.079,0-.159-.016-.238-.016A1.2,1.2,0,0,0-240.962,302.016Z" transform="translate(270.689 -265.252)" fill="#2f00b0"/>
        <path id="Trazado_1154" data-name="Trazado 1154" d="M-222.6,239.1a22.9,22.9,0,0,1,2.682,3.365h0A22.9,22.9,0,0,0-222.6,239.1Z" transform="translate(255.041 -212.35)" fill="#2f00b0"/>
        <path id="Trazado_1155" data-name="Trazado 1155" d="M-264.279,145.9h0a12.4,12.4,0,0,0-1.317.063,14.322,14.322,0,0,0-8.9,4.238h0a14.322,14.322,0,0,1,8.9-4.238C-265.152,145.932-264.723,145.9-264.279,145.9Z" transform="translate(298.703 -133.972)" fill="#2f00b0"/>
        <path id="Trazado_1156" data-name="Trazado 1156" d="M-213,305.9a22.63,22.63,0,0,1,4.65,1.7h0a22.973,22.973,0,0,0-4.65-1.7Z" transform="translate(246.964 -268.53)" fill="#2f00b0"/>
        <path id="Trazado_1157" data-name="Trazado 1157" d="M-183.7,316.7Z" transform="translate(222.314 -277.599)" fill="#2f00b0"/>
        <path id="Trazado_1158" data-name="Trazado 1158" d="M-281.76,70.9h0L-293.6,85.136h0Z" transform="translate(314.772 -70.9)" fill="#2f00b0"/>
        <path id="Trazado_1159" data-name="Trazado 1159" d="M-417.317,186.338A14.357,14.357,0,0,1-412,184.29a13.359,13.359,0,0,1,2.254-.19,13.359,13.359,0,0,0-2.254.19h0a14.253,14.253,0,0,0-5.317,2.047,14.356,14.356,0,0,0-5.983,7.84h0A14.338,14.338,0,0,1-417.317,186.338Z" transform="translate(423.887 -166.091)" fill="#2f00b0"/>
        <path id="Trazado_1160" data-name="Trazado 1160" d="M-371.1,145.9h0l8.3,3.349q-.31-.6-.667-1.143.357.548.667,1.143Z" transform="translate(379.972 -133.972)" fill="#2f00b0"/>
        <path id="Trazado_1161" data-name="Trazado 1161" d="M-269.4,206.5h0a24.063,24.063,0,0,1,4.9,2.9A22.327,22.327,0,0,0-269.4,206.5Z" transform="translate(294.413 -184.935)" fill="#2f00b0"/>
        <path id="Trazado_1162" data-name="Trazado 1162" d="M-327.728,323.322a19.716,19.716,0,0,1,2.9-.222h0a25.28,25.28,0,0,0-2.9.222,19.036,19.036,0,0,0-11.872,6.92h0A19.036,19.036,0,0,1-327.728,323.322Z" transform="translate(353.471 -282.984)" fill="#2f00b0"/>
        <path id="Trazado_1163" data-name="Trazado 1163" d="M-225.8,235.9c-.19-.206-.4-.4-.6-.6.206.206.413.4.6.6Z" transform="translate(258.237 -209.158)" fill="#2f00b0"/>
        <path id="Trazado_1164" data-name="Trazado 1164" d="M-222.6,239.1Z" transform="translate(255.041 -212.354)" fill="#2f00b0"/>
        <path id="Trazado_1165" data-name="Trazado 1165" d="M-235.294,302.7a21.848,21.848,0,0,0-4.206-.6h0a21.848,21.848,0,0,1,4.206.6Z" transform="translate(269.258 -265.335)" fill="#2f00b0"/>
      </g>
      <g id="Grupo_1622" data-name="Grupo 1622" transform="translate(-444.352 69.364)">
        <circle id="Elipse_91" data-name="Elipse 91" cx="3.682" cy="3.682" r="3.682" transform="translate(0 0)" fill="#5069a0"/>
      </g>
      <g id="Grupo_1623" data-name="Grupo 1623" transform="translate(-438.675 68.95)">
        <circle id="Elipse_92" data-name="Elipse 92" cx="3.682" cy="3.682" r="3.682" transform="translate(0 0)" fill="#5069a0"/>
      </g>
      <g id="Grupo_1626" data-name="Grupo 1626" transform="translate(-420.691 70.701)">
        <g id="Grupo_1625" data-name="Grupo 1625" transform="translate(0.825 1.587)">
          <rect id="Rectángulo_477" data-name="Rectángulo 477" width="20.093" height="24.426" transform="translate(0 5.523)" fill="#fff"/>
          <g id="Grupo_1624" data-name="Grupo 1624" transform="translate(1.397)">
            <path id="Trazado_1166" data-name="Trazado 1166" d="M-161.745,241.5h-15.966a1.036,1.036,0,0,0-.889,1.111v19.966a1.036,1.036,0,0,0,.889,1.111h15.966a1.036,1.036,0,0,0,.889-1.111V242.611A1.025,1.025,0,0,0-161.745,241.5Zm-11.3,18.855h-2.222V244.833h2.222Zm4.428,0h-2.222V244.833h2.222Zm4.444,0H-166.4V244.833h2.222Z" transform="translate(178.6 -234.85)" fill="none"/>
            <rect id="Rectángulo_478" data-name="Rectángulo 478" width="4.428" height="4.428" transform="translate(6.666)" fill="none"/>
            <path id="Trazado_1167" data-name="Trazado 1167" d="M-87.6,394.7a1.634,1.634,0,0,0-.1.555,1.666,1.666,0,0,0,1.666,1.666,1.666,1.666,0,0,0,1.666-1.666,1.7,1.7,0,0,0-.127-.651,2.913,2.913,0,0,1-.746.1Z" transform="translate(102.127 -363.651)" fill="#5069a0"/>
            <path id="Trazado_1168" data-name="Trazado 1168" d="M-178.373,394.6a1.825,1.825,0,0,0-.127.651,1.666,1.666,0,0,0,1.666,1.666,1.666,1.666,0,0,0,1.666-1.666,1.634,1.634,0,0,0-.1-.555h-2.349A2.947,2.947,0,0,1-178.373,394.6Z" transform="translate(178.516 -363.651)" fill="#5069a0"/>
            <path id="Trazado_1169" data-name="Trazado 1169" d="M-85.529,388.2a1.667,1.667,0,0,0-1.571,1.111h2.349a2.913,2.913,0,0,0,.746-.1A1.65,1.65,0,0,0-85.529,388.2Z" transform="translate(101.622 -358.267)" fill="#2f00b0"/>
            <path id="Trazado_1170" data-name="Trazado 1170" d="M-176.176,388.2a1.65,1.65,0,0,0-1.524,1.016,2.913,2.913,0,0,0,.746.1h2.349A1.651,1.651,0,0,0-176.176,388.2Z" transform="translate(177.843 -358.267)" fill="#2f00b0"/>
            <rect id="Rectángulo_479" data-name="Rectángulo 479" width="2.222" height="15.522" transform="translate(3.333 9.983)" fill="#5069a0"/>
            <rect id="Rectángulo_480" data-name="Rectángulo 480" width="2.222" height="15.522" transform="translate(7.761 9.983)" fill="#5069a0"/>
            <rect id="Rectángulo_481" data-name="Rectángulo 481" width="2.222" height="15.522" transform="translate(12.205 9.983)" fill="#5069a0"/>
          </g>
        </g>
        <path id="Trazado_1171" data-name="Trazado 1171" d="M-173.539,227.9h-15.919a3.139,3.139,0,0,0-3.142,3.142v20.283a3.139,3.139,0,0,0,3.142,3.142h15.9a3.139,3.139,0,0,0,3.142-3.142V231.042A3.126,3.126,0,0,0-173.539,227.9Zm.9,22.2a1.683,1.683,0,0,1-1.682,1.682H-188.68a1.683,1.683,0,0,1-1.682-1.682V232.249a1.683,1.683,0,0,1,1.682-1.682h14.363a1.683,1.683,0,0,1,1.682,1.682Z" transform="translate(192.6 -221.821)" fill="#153272"/>
        <path id="Trazado_1172" data-name="Trazado 1172" d="M-148.378,191.822h4.428v4.428h2.222v-5.539a1.1,1.1,0,0,0-1.111-1.111h-6.65a1.1,1.1,0,0,0-1.111,1.111v5.539h2.222Z" transform="translate(157.266 -189.6)" fill="#153272"/>
      </g>
      <path id="Trazado_1173" data-name="Trazado 1173" d="M-425.2,147.1" transform="translate(-32.518 -83.21)" fill="#2f00b0"/>
    </g>
  </g>
</svg>
