<svg xmlns="http://www.w3.org/2000/svg" width="65.345" height="57.394" viewBox="0 0 65.345 57.394">
  <g id="paquetes" transform="translate(-34.447 -48.164)">
    <path id="Trazado_862" data-name="Trazado 862" d="M88.474,99.9h0a22.831,22.831,0,0,0-5.834-6.772,26.65,26.65,0,0,0-14.2-22.081l18.695-1.717a1.688,1.688,0,0,0,1.129-2.782,17.752,17.752,0,0,0-15.118-6.152,18.675,18.675,0,0,0-2.989.54L78.427,51a1.7,1.7,0,0,0,.254-1.749,1.673,1.673,0,0,0-1.431-1.033A17.686,17.686,0,0,0,58.476,62.429,17.681,17.681,0,0,0,35.219,58.82a1.706,1.706,0,0,0,.286,3l3.7,1.494a2.089,2.089,0,0,0,2.385-.588h0a1.475,1.475,0,0,0-.572-2.337l-.7-.286h0a14.351,14.351,0,0,1,16.533,5.8q.358.548.668,1.145L49.208,63.7l-2.178-.843A1.709,1.709,0,0,0,45,63.51h0a1.766,1.766,0,0,0,.874,2.639l3.179,1.145a17.021,17.021,0,0,0-3.958,1.876A17.793,17.793,0,0,0,36.9,83.3a1.7,1.7,0,0,0,.843,1.542,1.667,1.667,0,0,0,1.129.207,1.638,1.638,0,0,0,.636-.238L59.827,71.856A22.958,22.958,0,0,1,66.456,88.1c0,.191,0,.366-.016.556A22.248,22.248,0,0,0,49.59,99.9a1.719,1.719,0,0,0,.016,1.685,1.682,1.682,0,0,0,1.463.843H87.011a1.708,1.708,0,0,0,1.478-.843A1.806,1.806,0,0,0,88.474,99.9ZM40.894,79.884h0a14.355,14.355,0,0,1,11.319-9.9h0a13.382,13.382,0,0,1,2.257-.191c.254,0,.509,0,.763.016l.906.366ZM61.512,66.038a14.265,14.265,0,0,1,2.194-7.758,14.873,14.873,0,0,1,1.129-1.558,14.407,14.407,0,0,1,8.553-4.96h0L61.512,66.038Zm3.036,1.971a14.345,14.345,0,0,1,8.918-4.244,12.222,12.222,0,0,1,1.319-.064h0a14.348,14.348,0,0,1,8.235,2.607l-18.472,1.7Zm.811,5.325h0A22.974,22.974,0,0,1,72.2,77.913c.207.191.4.4.6.6h0a22.934,22.934,0,0,1,2.687,3.37h0a22.309,22.309,0,0,1,1.86,3.434,23.159,23.159,0,0,1,1.637,5.532h0a22.668,22.668,0,0,0-4.658-1.7,21.883,21.883,0,0,0-4.213-.6h-.032c-.079,0-.159-.016-.238-.016h-.016V88.1a27.015,27.015,0,0,0-.6-5.691,26.246,26.246,0,0,0-3.863-9.077ZM83.816,99.04H54.2a18.955,18.955,0,0,1,11.891-6.931A19.75,19.75,0,0,1,69,91.886h0c.191,0,.35,0,.54.016a18.547,18.547,0,0,1,9.729,3.036,12.3,12.3,0,0,1,1.59,1.16,17.835,17.835,0,0,1,2.957,2.941Z" fill="#0036b0"/>
    <g id="Grupo_1099" data-name="Grupo 1099" transform="translate(40.306 51.778)">
      <path id="Trazado_863" data-name="Trazado 863" d="M81.172,119.789a14.38,14.38,0,0,1,6.661,5.484,14.351,14.351,0,0,0-16.533-5.8h0A14.45,14.45,0,0,1,81.172,119.789Z" transform="translate(-71.3 -111.141)" fill="none"/>
      <path id="Trazado_864" data-name="Trazado 864" d="M291.751,289.5c-.429.588-.89,1.16-1.351,1.7C290.861,290.645,291.322,290.088,291.751,289.5Z" transform="translate(-255.57 -254.749)" fill="none"/>
      <path id="Trazado_865" data-name="Trazado 865" d="M242.272,148.507a14.348,14.348,0,0,0-8.235-2.607h0a14.348,14.348,0,0,1,8.235,2.607l-18.472,1.7h0Z" transform="translate(-199.557 -133.977)" fill="none"/>
      <path id="Trazado_866" data-name="Trazado 866" d="M258.632,266.945h0c.334-.3.652-.6.97-.906A28.232,28.232,0,0,0,264,260.3a22.311,22.311,0,0,1,1.86,3.434h0a23.159,23.159,0,0,1,1.637,5.532h0a23.377,23.377,0,0,0-1.637-5.532A23.89,23.89,0,0,0,264,260.3h0a28.232,28.232,0,0,1-4.4,5.739C259.284,266.357,258.95,266.659,258.632,266.945Z" transform="translate(-228.825 -230.191)" fill="none"/>
      <path id="Trazado_867" data-name="Trazado 867" d="M218.5,103.558A14.873,14.873,0,0,1,219.629,102,11.742,11.742,0,0,0,218.5,103.558Z" transform="translate(-195.1 -97.056)" fill="none"/>
      <path id="Trazado_868" data-name="Trazado 868" d="M204.695,119.558h0a14.264,14.264,0,0,1,2.194-7.758A14.264,14.264,0,0,0,204.695,119.558Z" transform="translate(-183.488 -105.298)" fill="none"/>
      <path id="Trazado_869" data-name="Trazado 869" d="M88.576,184.165c.254,0,.509,0,.763.016l.906.366L75,194.26h0l15.245-9.713-.906-.366A6.11,6.11,0,0,0,88.576,184.165Z" transform="translate(-74.412 -166.154)" fill="none"/>
      <path id="Trazado_870" data-name="Trazado 870" d="M234.053,70.9h0a14.407,14.407,0,0,0-8.553,4.96A14.249,14.249,0,0,1,234.053,70.9Z" transform="translate(-200.987 -70.9)" fill="none"/>
      <path id="Trazado_871" data-name="Trazado 871" d="M232.747,215.561a27.014,27.014,0,0,1,.6,5.691v.429h0v-.429a25.264,25.264,0,0,0-.6-5.691h0a26.339,26.339,0,0,0-1.081-3.672,31.541,31.541,0,0,0,2.146-2.48,24.136,24.136,0,0,1,1.924,1.669,24.136,24.136,0,0,0-1.924-1.669,31.541,31.541,0,0,1-2.146,2.48A26.556,26.556,0,0,0,228.9,206.5h0a25.772,25.772,0,0,1,2.766,5.389A24.342,24.342,0,0,1,232.747,215.561Z" transform="translate(-203.846 -184.944)" fill="none"/>
      <path id="Trazado_872" data-name="Trazado 872" d="M263.759,327.313a14.008,14.008,0,0,0-1.59-1.16,18.547,18.547,0,0,0-9.729-3.036c-.191-.016-.35-.016-.54-.016h0c.191,0,.35,0,.54.016a18.547,18.547,0,0,1,9.729,3.036,14.008,14.008,0,0,1,1.59,1.16h0a18.4,18.4,0,0,1,2.925,2.957h0A18.4,18.4,0,0,0,263.759,327.313Z" transform="translate(-223.19 -283.008)" fill="none"/>
      <path id="Trazado_873" data-name="Trazado 873" d="M254.249,241.977h0q-.548.548-1.049,1h0a27.014,27.014,0,0,1,.6,5.691v.429h.016c.079,0,.159.016.238.016h.032c.334-.3.652-.6.97-.906a28.235,28.235,0,0,0,4.4-5.739,22.935,22.935,0,0,0-2.687-3.37A30.877,30.877,0,0,1,254.249,241.977Z" transform="translate(-224.283 -212.361)" fill="none"/>
      <path id="Trazado_874" data-name="Trazado 874" d="M234.038,145.9a12.419,12.419,0,0,0-1.319.064,14.345,14.345,0,0,0-8.918,4.244l18.472-1.7A14.348,14.348,0,0,0,234.038,145.9Z" transform="translate(-199.557 -133.977)" fill="none"/>
      <path id="Trazado_875" data-name="Trazado 875" d="M288.32,281.9h0c-.27.413-.556.811-.858,1.208-.429.588-.89,1.16-1.351,1.7-.27.3-.54.62-.811.906a22.664,22.664,0,0,1,4.658,1.7,23.252,23.252,0,0,0-1.637-5.516Z" transform="translate(-251.28 -248.357)" fill="none"/>
      <path id="Trazado_876" data-name="Trazado 876" d="M207.921,75.844a15.534,15.534,0,0,0-1.129,1.558A14.44,14.44,0,0,0,204.6,85.16L216.458,70.9A14.312,14.312,0,0,0,207.921,75.844Z" transform="translate(-183.408 -70.9)" fill="none"/>
      <path id="Trazado_877" data-name="Trazado 877" d="M89.239,184.116c-.254-.016-.509-.016-.763-.016a13.383,13.383,0,0,0-2.257.191,14.355,14.355,0,0,0-11.319,9.9l15.245-9.713Z" transform="translate(-74.328 -166.105)" fill="none"/>
      <path id="Trazado_878" data-name="Trazado 878" d="M233.812,209.409A22.74,22.74,0,0,0,228.9,206.5a25.772,25.772,0,0,1,2.766,5.389A24.217,24.217,0,0,0,233.812,209.409Z" transform="translate(-203.846 -184.944)" fill="none"/>
      <path id="Trazado_879" data-name="Trazado 879" d="M185.459,327.313h0a14.006,14.006,0,0,0-1.59-1.16,18.547,18.547,0,0,0-9.729-3.036c-.191-.016-.35-.016-.54-.016a19.423,19.423,0,0,0-2.909.223,19.067,19.067,0,0,0-11.891,6.931h29.6A19.785,19.785,0,0,0,185.459,327.313Z" transform="translate(-144.89 -283.008)" fill="none"/>
      <path id="Trazado_880" data-name="Trazado 880" d="M246.3,227.28a26.338,26.338,0,0,1,1.081,3.672q.525-.477,1.049-1a30.879,30.879,0,0,0,2.528-2.877c-.191-.207-.4-.4-.6-.6a24.118,24.118,0,0,0-1.924-1.669A22.254,22.254,0,0,1,246.3,227.28Z" transform="translate(-218.48 -200.335)" fill="#0036b0" opacity="0.278"/>
      <path id="Trazado_881" data-name="Trazado 881" d="M254.249,241.977h0a30.877,30.877,0,0,0,2.528-2.877h0a30.877,30.877,0,0,1-2.528,2.877q-.548.548-1.049,1h0Q253.7,242.526,254.249,241.977Z" transform="translate(-224.283 -212.361)" fill="#cac5ff"/>
      <path id="Trazado_882" data-name="Trazado 882" d="M263.013,267.549l.811-.906c.477-.556.922-1.129,1.351-1.7.3-.4.588-.795.858-1.208a23.884,23.884,0,0,0-1.86-3.434,28.235,28.235,0,0,1-4.4,5.739c-.318.318-.636.62-.97.906a21.886,21.886,0,0,1,4.213.6Z" transform="translate(-228.993 -230.191)" fill="#0036b0" opacity="0.278"/>
      <path id="Trazado_883" data-name="Trazado 883" d="M299.758,281.9h0c-.27.413-.556.811-.858,1.208C299.2,282.711,299.488,282.313,299.758,281.9Z" transform="translate(-262.718 -248.357)" fill="#cac5ff"/>
      <path id="Trazado_884" data-name="Trazado 884" d="M257.338,302.016c-.079,0-.159-.016-.238-.016A1.205,1.205,0,0,0,257.338,302.016Z" transform="translate(-227.563 -265.262)" fill="#2f00b0"/>
      <path id="Trazado_885" data-name="Trazado 885" d="M275.7,239.1a22.935,22.935,0,0,1,2.687,3.37h0a22.935,22.935,0,0,0-2.687-3.37Z" transform="translate(-243.207 -212.361)" fill="#2f00b0"/>
      <path id="Trazado_886" data-name="Trazado 886" d="M234.038,145.9h0a12.419,12.419,0,0,0-1.319.064,14.345,14.345,0,0,0-8.918,4.244h0a14.345,14.345,0,0,1,8.918-4.244C233.163,145.932,233.593,145.9,234.038,145.9Z" transform="translate(-199.557 -133.977)" fill="#2f00b0"/>
      <path id="Trazado_887" data-name="Trazado 887" d="M285.3,305.9a22.668,22.668,0,0,1,4.658,1.7h0a23.012,23.012,0,0,0-4.658-1.7Z" transform="translate(-251.28 -268.542)" fill="#2f00b0"/>
      <path id="Trazado_888" data-name="Trazado 888" d="M314.6,316.7Z" transform="translate(-275.923 -277.625)" fill="#2f00b0"/>
      <path id="Trazado_889" data-name="Trazado 889" d="M216.559,70.9h0L204.7,85.16h0Z" transform="translate(-183.493 -70.9)" fill="#2f00b0"/>
      <path id="Trazado_890" data-name="Trazado 890" d="M80.993,186.341a14.381,14.381,0,0,1,5.326-2.051,13.383,13.383,0,0,1,2.257-.191,13.383,13.383,0,0,0-2.257.191h0A14.355,14.355,0,0,0,75,194.195h0A14.362,14.362,0,0,1,80.993,186.341Z" transform="translate(-74.412 -166.105)" fill="#2f00b0"/>
      <path id="Trazado_891" data-name="Trazado 891" d="M127.2,145.9h0l8.314,3.354q-.31-.6-.668-1.145.358.548.668,1.145Z" transform="translate(-118.314 -133.977)" fill="#2f00b0"/>
      <path id="Trazado_892" data-name="Trazado 892" d="M228.9,206.5h0a24.1,24.1,0,0,1,4.912,2.909A22.365,22.365,0,0,0,228.9,206.5Z" transform="translate(-203.846 -184.944)" fill="#2f00b0"/>
      <path id="Trazado_893" data-name="Trazado 893" d="M170.591,323.323a19.751,19.751,0,0,1,2.909-.223h0a25.321,25.321,0,0,0-2.909.223,19.068,19.068,0,0,0-11.891,6.931h0A19.068,19.068,0,0,1,170.591,323.323Z" transform="translate(-144.806 -283.008)" fill="#2f00b0"/>
      <path id="Trazado_894" data-name="Trazado 894" d="M272.5,235.9c-.191-.207-.4-.4-.6-.6.207.207.413.4.6.6Z" transform="translate(-240.011 -209.165)" fill="#2f00b0"/>
      <path id="Trazado_895" data-name="Trazado 895" d="M275.7,239.1Z" transform="translate(-243.207 -212.361)" fill="#2f00b0"/>
      <path id="Trazado_896" data-name="Trazado 896" d="M263.013,302.7a21.882,21.882,0,0,0-4.213-.6h0a21.882,21.882,0,0,1,4.213.6Z" transform="translate(-228.993 -265.346)" fill="#2f00b0"/>
    </g>
    <g id="Grupo_1100" data-name="Grupo 1100" transform="translate(53.611 69.36)">
      <circle id="Elipse_37" data-name="Elipse 37" cx="3.688" cy="3.688" r="3.688" fill="#e82d56"/>
    </g>
    <g id="Grupo_1101" data-name="Grupo 1101" transform="translate(59.191 68.947)">
      <circle id="Elipse_38" data-name="Elipse 38" cx="3.688" cy="3.688" r="3.688" fill="#e82d56"/>
    </g>
    <g id="Grupo_1104" data-name="Grupo 1104" transform="translate(77.568 70.648)">
      <g id="Grupo_1103" data-name="Grupo 1103" transform="translate(0.827 1.59)">
        <rect id="Rectángulo_276" data-name="Rectángulo 276" width="20.126" height="24.465" transform="translate(0 5.532)" fill="#fff"/>
        <g id="Grupo_1102" data-name="Grupo 1102" transform="translate(1.399)">
          <path id="Trazado_897" data-name="Trazado 897" d="M336.583,241.5H320.59a1.038,1.038,0,0,0-.89,1.113v20a1.038,1.038,0,0,0,.89,1.113h15.992a1.038,1.038,0,0,0,.89-1.113v-20A1.026,1.026,0,0,0,336.583,241.5Zm-11.319,18.886h-2.226V244.838h2.226Zm4.435,0h-2.226V244.838H329.7Zm4.451,0h-2.226V244.838h2.226Z" transform="translate(-319.7 -234.839)" fill="none"/>
          <rect id="Rectángulo_277" data-name="Rectángulo 277" width="4.435" height="4.435" transform="translate(6.677)" fill="none"/>
          <path id="Trazado_898" data-name="Trazado 898" d="M410.7,394.7a1.637,1.637,0,0,0-.1.556,1.669,1.669,0,0,0,3.338,0,1.7,1.7,0,0,0-.127-.652,2.919,2.919,0,0,1-.747.1Z" transform="translate(-396.15 -363.601)" fill="#e82d56"/>
          <path id="Trazado_899" data-name="Trazado 899" d="M319.927,394.6a1.829,1.829,0,0,0-.127.652,1.669,1.669,0,0,0,3.338,0,1.637,1.637,0,0,0-.1-.556H320.69A2.954,2.954,0,0,1,319.927,394.6Z" transform="translate(-319.784 -363.601)" fill="#e82d56"/>
          <path id="Trazado_900" data-name="Trazado 900" d="M412.774,388.2a1.669,1.669,0,0,0-1.574,1.113h2.353a2.917,2.917,0,0,0,.747-.1A1.653,1.653,0,0,0,412.774,388.2Z" transform="translate(-396.654 -358.218)" fill="#2f00b0"/>
          <path id="Trazado_901" data-name="Trazado 901" d="M322.126,388.2a1.653,1.653,0,0,0-1.526,1.017,2.917,2.917,0,0,0,.747.1H323.7A1.654,1.654,0,0,0,322.126,388.2Z" transform="translate(-320.457 -358.218)" fill="#2f00b0"/>
          <rect id="Rectángulo_278" data-name="Rectángulo 278" width="2.226" height="15.547" transform="translate(3.338 9.999)" fill="#b8c7e9"/>
          <rect id="Rectángulo_279" data-name="Rectángulo 279" width="2.226" height="15.547" transform="translate(7.774 9.999)" fill="#b8c7e9"/>
          <rect id="Rectángulo_280" data-name="Rectángulo 280" width="2.226" height="15.547" transform="translate(12.225 9.999)" fill="#b8c7e9"/>
        </g>
      </g>
      <path id="Trazado_902" data-name="Trazado 902" d="M324.792,227.9H308.848a3.145,3.145,0,0,0-3.148,3.148v20.316a3.145,3.145,0,0,0,3.148,3.148h15.929a3.145,3.145,0,0,0,3.148-3.148V231.048A3.131,3.131,0,0,0,324.792,227.9Zm.906,22.24a1.686,1.686,0,0,1-1.685,1.685H309.627a1.686,1.686,0,0,1-1.685-1.685V232.256a1.686,1.686,0,0,1,1.685-1.685h14.387a1.686,1.686,0,0,1,1.685,1.685Z" transform="translate(-305.7 -221.811)" fill="#0036b0"/>
      <path id="Trazado_903" data-name="Trazado 903" d="M349.926,191.826h4.435v4.435h2.226v-5.548a1.106,1.106,0,0,0-1.113-1.113h-6.661a1.106,1.106,0,0,0-1.113,1.113v5.548h2.226Z" transform="translate(-341.023 -189.6)" fill="#0036b0"/>
    </g>
    <path id="Trazado_904" data-name="Trazado 904" d="M73.1,147.1" transform="translate(-32.508 -83.208)" fill="#2f00b0"/>
  </g>
</svg>
