<svg width="35" height="19" viewBox="0 0 35 19" fill="none" xmlns="http://www.w3.org/2000/svg">
<path d="M35 7.32628V14.5672C35 14.8865 34.741 15.1516 34.4157 15.1516H33.0301C32.7108 15.1516 32.4458 14.8925 32.4458 14.5672C32.4458 14.248 32.7048 13.9829 33.0301 13.9829H33.8313V7.32628C33.8313 6.39254 33.3855 5.51905 32.6325 4.96483C30.3976 3.34435 26.1084 0.910616 20.7831 1.18772L21.1627 4.10941C21.2048 4.42869 20.9759 4.72387 20.6566 4.76001C20.3374 4.80218 20.0422 4.57327 20.006 4.25399L19.6205 1.28411C16.1265 1.73592 12.8614 3.27206 10.2771 5.67568H25.012C25.8916 5.67568 26.7289 5.27809 27.2831 4.59134C27.488 4.33833 27.8554 4.30218 28.1024 4.50098C28.3554 4.7058 28.3916 5.07327 28.1928 5.32025C27.4217 6.28411 26.253 6.84435 25.0181 6.83833H8.93976L2.44578 8.65158C1.68675 8.86242 1.16265 9.55519 1.16265 10.3383V13.8323H2.03614C2.35542 13.8323 2.62048 14.0913 2.62048 14.4166C2.62048 14.7359 2.36145 15.001 2.03614 15.001H0.584337C0.259036 14.995 0 14.7359 0 14.4166V10.3383C0.0060241 9.0311 0.873494 7.8805 2.13855 7.5311L8.54217 5.75399C14.8916 -0.890589 24.759 -2.19179 33.3193 4.02507C34.3735 4.79616 35 6.01905 35 7.32628Z" fill="#0036B0"/>
<path d="M7.94588 10.3444C5.69287 10.3444 3.86154 12.1697 3.86154 14.4287C3.86154 16.6877 5.68684 18.513 7.94588 18.513C10.1989 18.513 12.0302 16.6877 12.0302 14.4287C12.0302 12.1757 10.2049 10.3504 7.94588 10.3444ZM7.94588 17.3444C6.33745 17.3444 5.03022 16.0371 5.03022 14.4287C5.03022 12.8203 6.33745 11.513 7.94588 11.513C9.55431 11.513 10.8615 12.8203 10.8615 14.4287C10.8615 16.0371 9.56034 17.3444 7.94588 17.3444Z" fill="#E82D56"/>
<path d="M27.0541 10.3444C24.8011 10.3444 22.9698 12.1697 22.9698 14.4287C22.9698 16.6877 24.7951 18.513 27.0541 18.513C29.3132 18.513 31.1385 16.6877 31.1385 14.4287C31.1325 12.1757 29.3072 10.3504 27.0541 10.3444ZM27.0541 17.3444C25.4457 17.3444 24.1385 16.0371 24.1385 14.4287C24.1385 12.8203 25.4457 11.513 27.0541 11.513C28.6626 11.513 29.9698 12.8203 29.9698 14.4287C29.9638 16.0371 28.6626 17.3444 27.0541 17.3444Z" fill="#E82D56"/>
<path d="M18.5604 13.995H13.8556C13.5363 13.995 13.2712 14.254 13.2712 14.5793C13.2712 14.8986 13.5303 15.1637 13.8556 15.1637H18.5604C18.8797 15.1637 19.1447 14.9046 19.1447 14.5793C19.1447 14.254 18.8857 13.995 18.5604 13.995Z" fill="#0036B0"/>
<path d="M20.5121 15.1576C20.8348 15.1576 21.0964 14.896 21.0964 14.5732C21.0964 14.2505 20.8348 13.9889 20.5121 13.9889C20.1894 13.9889 19.9278 14.2505 19.9278 14.5732C19.9278 14.896 20.1894 15.1576 20.5121 15.1576Z" fill="#0036B0"/>
</svg>
