<svg width="35" height="19" viewBox="0 0 35 19" fill="none" xmlns="http://www.w3.org/2000/svg">
<path opacity="0.59" d="M35 7.32628V14.5672C35 14.8865 34.741 15.1516 34.4157 15.1516H33.0301C32.7108 15.1516 32.4458 14.8925 32.4458 14.5672C32.4458 14.248 32.7048 13.9829 33.0301 13.9829H33.8313V7.32628C33.8313 6.39254 33.3855 5.51905 32.6325 4.96483C30.3976 3.34435 26.1084 0.910616 20.7831 1.18772L21.1627 4.10941C21.2048 4.42869 20.9759 4.72387 20.6566 4.76001C20.3374 4.80218 20.0422 4.57327 20.006 4.25399L19.6205 1.28411C16.1265 1.73592 12.8614 3.27206 10.2771 5.67568H25.012C25.8916 5.67568 26.7289 5.27809 27.2831 4.59134C27.488 4.33833 27.8554 4.30218 28.1024 4.50098C28.3554 4.7058 28.3916 5.07327 28.1928 5.32025C27.4217 6.28411 26.253 6.84435 25.0181 6.83833H8.93976L2.44578 8.65158C1.68675 8.86242 1.16265 9.55519 1.16265 10.3383V13.8323H2.03614C2.35542 13.8323 2.62048 14.0913 2.62048 14.4166C2.62048 14.7359 2.36145 15.001 2.03614 15.001H0.584337C0.259036 14.995 0 14.7359 0 14.4166V10.3383C0.0060241 9.0311 0.873494 7.8805 2.13855 7.5311L8.54217 5.75399C14.8916 -0.890589 24.759 -2.19179 33.3193 4.02507C34.3735 4.79616 35 6.01905 35 7.32628Z" fill="#0036B0"/>
<path opacity="0.59" d="M7.94567 10.3442C5.69265 10.3442 3.86133 12.1695 3.86133 14.4286C3.86133 16.6876 5.68663 18.5129 7.94567 18.5129C10.1987 18.5129 12.03 16.6876 12.03 14.4286C12.03 12.1756 10.2047 10.3503 7.94567 10.3442ZM7.94567 17.3442C6.33723 17.3442 5.03 16.037 5.03 14.4286C5.03 12.8201 6.33723 11.5129 7.94567 11.5129C9.5541 11.5129 10.8613 12.8201 10.8613 14.4286C10.8613 16.037 9.56012 17.3442 7.94567 17.3442Z" fill="#B8C7E9"/>
<path opacity="0.59" d="M27.0541 10.3442C24.8011 10.3442 22.9697 12.1695 22.9697 14.4286C22.9697 16.6876 24.795 18.5129 27.0541 18.5129C29.3131 18.5129 31.1384 16.6876 31.1384 14.4286C31.1324 12.1756 29.3071 10.3503 27.0541 10.3442ZM27.0541 17.3442C25.4456 17.3442 24.1384 16.037 24.1384 14.4286C24.1384 12.8201 25.4456 11.5129 27.0541 11.5129C28.6625 11.5129 29.9697 12.8201 29.9697 14.4286C29.9637 16.037 28.6625 17.3442 27.0541 17.3442Z" fill="#B8C7E9"/>
<path opacity="0.59" d="M18.5606 13.9949H13.8558C13.5365 13.9949 13.2715 14.2539 13.2715 14.5792C13.2715 14.8985 13.5305 15.1635 13.8558 15.1635H18.5606C18.8799 15.1635 19.145 14.9045 19.145 14.5792C19.145 14.2539 18.8859 13.9949 18.5606 13.9949Z" fill="#0036B0"/>
<path opacity="0.59" d="M20.5121 15.1577C20.8348 15.1577 21.0964 14.8961 21.0964 14.5734C21.0964 14.2506 20.8348 13.989 20.5121 13.989C20.1893 13.989 19.9277 14.2506 19.9277 14.5734C19.9277 14.8961 20.1893 15.1577 20.5121 15.1577Z" fill="#0036B0"/>
</svg>
