<svg width="35" height="26" viewBox="0 0 35 26" fill="none" xmlns="http://www.w3.org/2000/svg">
<g opacity="0.59">
<path opacity="0.59" d="M13.6748 7.67432H16.9552V12.0512H13.6748V7.67432Z" fill="#B8C7E9"/>
</g>
<g opacity="0.59">
<path opacity="0.59" d="M18.0415 7.67432H21.3219V12.0512H18.0415V7.67432Z" fill="#B8C7E9"/>
</g>
<g opacity="0.59">
<path opacity="0.59" d="M13.6748 13.1382H16.9552V17.5151H13.6748V13.1382Z" fill="#B8C7E9"/>
</g>
<g opacity="0.59">
<path opacity="0.59" d="M18.0415 13.1382H21.3219V17.5151H18.0415V13.1382Z" fill="#B8C7E9"/>
</g>
<path opacity="0.59" d="M15.3145 18.6121H19.6913V22.9898H15.3145V18.6121Z" fill="#B8C7E9"/>
<path d="M13.1233 0L12.7852 0.717326L12.0264 0.830218L12.5699 1.39419L12.4365 2.18344L13.1128 1.81429L13.7892 2.18344L13.6558 1.39419L14.1993 0.830218L13.4405 0.717326L13.1233 0Z" fill="#B8C7E9"/>
<path d="M15.3167 0L14.9785 0.717326L14.2197 0.830218L14.7632 1.39419L14.6298 2.18344L15.3062 1.81429L15.9826 2.18344L15.8597 1.39419L16.4032 0.830218L15.6444 0.717326L15.3167 0Z" fill="#B8C7E9"/>
<path d="M17.5003 0L17.1621 0.717326L16.4038 0.830218L16.9473 1.39419L16.8139 2.18344L17.4903 1.81429L18.1667 2.18344L18.0333 1.39419L18.5768 0.830218L17.818 0.717326L17.5003 0Z" fill="#B8C7E9"/>
<path d="M19.6839 0L19.3457 0.717326L18.5874 0.830218L19.1309 1.39419L18.9975 2.18344L19.6739 1.81429L20.3502 2.18344L20.2169 1.39419L20.7603 0.830218L20.0021 0.717326L19.6839 0Z" fill="#B8C7E9"/>
<path d="M22.9614 0.830218L22.2032 0.717326L21.867 0L21.5288 0.717326L20.7705 0.830218L21.314 1.39419L21.1806 2.18344L21.857 1.81429L22.5333 2.18344L22.4205 1.39419L22.9614 0.830218Z" fill="#B8C7E9"/>
<path opacity="0.59" d="M33.899 7.67433H25.1573V4.28402C25.1573 3.99256 25.0415 3.71303 24.8354 3.50694C24.6293 3.30084 24.3498 3.18506 24.0583 3.18506H10.9397C10.6482 3.18506 10.3687 3.30084 10.1626 3.50694C9.9565 3.71303 9.84072 3.99256 9.84072 4.28402V7.10386C9.84072 7.39533 9.9565 7.67485 10.1626 7.88095C10.3687 8.08704 10.6482 8.20283 10.9397 8.20283V8.20283C11.2311 8.20283 11.5107 8.08704 11.7168 7.88095C11.9229 7.67485 12.0386 7.39533 12.0386 7.10386V5.38099H22.9783V22.9809H12.0386V10.3088C12.0386 10.0174 11.9229 9.73785 11.7168 9.53175C11.5107 9.32566 11.2311 9.20987 10.9397 9.20987C10.6482 9.20987 10.3687 9.32566 10.1626 9.53175C9.9565 9.73785 9.84072 10.0174 9.84072 10.3088V12.0512H1.09896C0.807499 12.0512 0.527974 12.167 0.321878 12.3731C0.115783 12.5792 0 12.8587 0 13.1502V24.0754C0 24.3668 0.115783 24.6463 0.321878 24.8524C0.527974 25.0585 0.807499 25.1743 1.09896 25.1743H33.901C34.1925 25.1743 34.472 25.0585 34.6781 24.8524C34.8842 24.6463 35 24.3668 35 24.0754V8.77129C34.9997 8.62697 34.9711 8.48412 34.9156 8.35089C34.8601 8.21766 34.7789 8.09665 34.6767 7.99479C34.5745 7.89292 34.4532 7.8122 34.3197 7.75721C34.1863 7.70222 34.0434 7.67406 33.899 7.67433ZM9.84072 22.9784H7.65728V18.6015H4.37687V22.9784H2.19343V14.2366H9.85071V22.9784H9.84072ZM32.8021 22.9784H30.6186V18.6015H27.3382V22.9784H25.1548V9.85776H32.8121V22.9784H32.8021Z" fill="#0036B0"/>
</svg>
