<svg width="36" height="31" viewBox="0 0 36 31" fill="none" xmlns="http://www.w3.org/2000/svg">
<g opacity="0.59">
<path d="M29.1314 27.9006C28.3336 26.488 27.2644 25.2469 25.9854 24.2488C25.8454 21.7719 25.0665 19.3735 23.7246 17.2869C22.3827 15.2002 20.5236 13.4965 18.328 12.3415L28.4094 11.4156C28.576 11.4007 28.7353 11.3401 28.8697 11.2405C29.0042 11.141 29.1086 11.0063 29.1715 10.8513C29.2344 10.6963 29.2534 10.5269 29.2264 10.3618C29.1993 10.1967 29.1273 10.0422 29.0182 9.91541C28.0238 8.75062 26.7644 7.84142 25.3458 7.26416C23.9273 6.6869 22.3909 6.45842 20.8657 6.59791C20.3214 6.65105 19.7824 6.74844 19.2539 6.88911L23.7135 1.53107C23.8206 1.40153 23.8901 1.24503 23.9142 1.07869C23.9384 0.912355 23.9163 0.742575 23.8505 0.587917C23.7866 0.432371 23.6804 0.297789 23.5441 0.199359C23.4077 0.100929 23.2466 0.0425688 23.0788 0.0308664C20.7448 -0.157319 18.4232 0.519694 16.5562 1.93292C14.6892 3.34614 13.4074 5.3968 12.9549 7.69422C11.4676 5.88713 9.36769 4.69017 7.05498 4.33128C4.74227 3.9724 2.37835 4.47666 0.413403 5.74805C0.273974 5.84002 0.162213 5.96822 0.0901147 6.11889C0.0180163 6.26956 -0.0116991 6.43702 0.00415281 6.6033C0.0200047 6.76957 0.0808273 6.9284 0.180096 7.06273C0.279365 7.19707 0.413333 7.30184 0.56763 7.36581L2.56287 8.17146C2.78326 8.26122 3.02641 8.27889 3.25746 8.22193C3.48851 8.16497 3.69559 8.0363 3.849 7.85438C3.93216 7.75834 3.99111 7.64379 4.02092 7.5203C4.05072 7.39681 4.05052 7.26797 4.02031 7.14458C3.99011 7.02118 3.93079 6.90682 3.84732 6.81105C3.76385 6.71528 3.65866 6.64091 3.54054 6.59414L3.16306 6.43991C4.78591 5.90353 6.54068 5.91948 8.15351 6.48528C9.76634 7.05109 11.1465 8.1349 12.0786 9.56759C12.2073 9.7646 12.3273 9.97041 12.4388 10.185L7.95704 8.37961L6.78254 7.92502C6.58718 7.85093 6.37244 7.84543 6.17354 7.90941C5.97464 7.97339 5.80338 8.10306 5.68785 8.27715C5.60795 8.39746 5.55646 8.53438 5.53728 8.67753C5.51809 8.82067 5.53172 8.96631 5.57713 9.10341C5.62254 9.24052 5.69853 9.3655 5.79937 9.4689C5.90021 9.5723 6.02324 9.65141 6.15916 9.70025L7.87345 10.3177C7.1214 10.5616 6.404 10.9016 5.73908 11.3293C4.44751 12.1542 3.3723 13.2764 2.60344 14.6021C1.83459 15.9278 1.39446 17.4183 1.31989 18.949C1.31273 19.1159 1.35128 19.2815 1.4314 19.4281C1.51152 19.5746 1.63015 19.6965 1.77448 19.7805C1.95781 19.8886 2.17355 19.9282 2.3833 19.8922C2.50533 19.8738 2.62216 19.8301 2.72627 19.7638L13.6834 12.7778C15.9877 15.1093 17.2732 18.2594 17.2581 21.5374C17.2581 21.6404 17.2581 21.7348 17.2495 21.8373C15.3631 22.0566 13.5558 22.7207 11.9761 23.7748C10.3965 24.8289 9.08961 26.243 8.16303 27.9006C8.08635 28.0401 8.04686 28.1969 8.04837 28.3561C8.04988 28.5152 8.09234 28.6713 8.17166 28.8093C8.25142 28.9479 8.3664 29.0629 8.50495 29.1427C8.6435 29.2226 8.80069 29.2644 8.96059 29.2639H28.3425C28.5035 29.2644 28.6618 29.2227 28.8016 29.1429C28.9415 29.0631 29.058 28.9481 29.1395 28.8093C29.2121 28.6686 29.2493 28.5123 29.2479 28.354C29.2465 28.1956 29.2065 28.04 29.1314 27.9006ZM3.47367 17.1069C3.89795 15.7397 4.69305 14.5169 5.7706 13.5744C6.84815 12.6319 8.16594 12.0067 9.5775 11.7683C9.97956 11.6996 10.3867 11.6652 10.7946 11.6653C10.9316 11.6653 11.0691 11.6653 11.2061 11.6739L11.6946 11.8713L3.47367 17.1069ZM14.592 9.64039C14.5759 8.16112 14.9867 6.70859 15.7752 5.45685C15.9597 5.16395 16.1631 4.88331 16.384 4.61669C17.5577 3.20898 19.1914 2.26158 20.9962 1.94199L14.592 9.64039ZM16.2292 10.7033C17.5108 9.39522 19.2149 8.58425 21.0383 8.41466C21.2746 8.39035 21.512 8.37883 21.7496 8.38015C23.3391 8.38149 24.8896 8.87235 26.1903 9.78599L16.2292 10.7033ZM16.6665 13.5748C18.0349 14.1691 19.2846 15.0056 20.3556 16.044C20.4672 16.147 20.5713 16.2597 20.6791 16.3676C21.2181 16.9265 21.7032 17.535 22.1281 18.1849C22.5159 18.7716 22.8516 19.3913 23.1311 20.0367C23.5486 20.9904 23.8451 21.9925 24.0139 23.0198C23.2127 22.6233 22.3703 22.3159 21.502 22.1031C20.7571 21.9217 19.9962 21.8133 19.2302 21.7796H19.2129C19.1703 21.7796 19.1272 21.7709 19.0846 21.7709H19.0759V21.5374C19.077 20.5059 18.9686 19.4772 18.7524 18.4685C18.3736 16.7199 17.6668 15.059 16.6692 13.5737L16.6665 13.5748ZM26.6196 27.4369H10.649C12.2426 25.4316 14.5311 24.0977 17.0613 23.6993C17.5805 23.6206 18.1048 23.5804 18.63 23.579C18.733 23.579 18.8187 23.579 18.9212 23.5877C20.7885 23.6328 22.606 24.1999 24.1676 25.2249C24.4696 25.4101 24.7564 25.6193 25.025 25.8504C25.6167 26.3149 26.1519 26.8477 26.6196 27.4369Z" fill="#0036B0"/>
<path opacity="0.278" d="M18.1587 16.4808C18.4008 17.1259 18.5956 17.7877 18.7416 18.461C18.9304 18.2895 19.1189 18.1098 19.3073 17.9217C19.7934 17.4333 20.2487 16.9152 20.6705 16.3703C20.5675 16.2587 20.4548 16.1546 20.347 16.0467C20.0172 15.7287 19.6709 15.4283 19.3095 15.1467C18.9591 15.619 18.5745 16.0649 18.1587 16.4808V16.4808Z" fill="#0036B0"/>
<path d="M19.3162 17.9212C19.8022 17.4327 20.2575 16.9146 20.6794 16.3698V16.3698C20.2575 16.9146 19.8022 17.4327 19.3162 17.9212C19.1192 18.1182 18.9306 18.2979 18.7505 18.4604C18.9302 18.2983 19.1188 18.1186 19.3162 17.9212Z" fill="#CAC5FF"/>
<path opacity="0.278" d="M21.5022 22.096L21.9395 21.6075C22.1968 21.3076 22.4367 20.9986 22.6681 20.6907C22.8298 20.475 22.9851 20.262 23.1307 20.0393C22.8475 19.3957 22.5121 18.7764 22.1277 18.1875C21.4727 19.3165 20.6753 20.3567 19.755 21.2823C19.5835 21.4538 19.412 21.6166 19.2319 21.7709C19.9979 21.8047 20.7588 21.913 21.5038 22.0944L21.5022 22.096Z" fill="#0036B0"/>
<path d="M23.1307 20.0388C22.9851 20.2615 22.8308 20.4762 22.668 20.6902C22.8297 20.4762 22.9851 20.2615 23.1307 20.0388Z" fill="#CAC5FF"/>
<path d="M19.2128 21.7703C19.1702 21.7703 19.1271 21.7617 19.0845 21.7617C19.1269 21.7688 19.1699 21.7717 19.2128 21.7703V21.7703Z" fill="#0036B0"/>
<path d="M20.6787 16.3698C21.2177 16.9287 21.7028 17.5371 22.1277 18.187V18.187C21.7028 17.5371 21.2177 16.9287 20.6787 16.3698V16.3698Z" fill="#0036B0"/>
<path d="M21.7508 8.38008C21.5133 8.37896 21.2759 8.39049 21.0395 8.4146C19.2162 8.58419 17.5121 9.39514 16.2305 10.7032V10.7032C17.5121 9.39514 19.2162 8.58419 21.0395 8.4146C21.279 8.39734 21.5109 8.38008 21.7508 8.38008Z" fill="#0036B0"/>
<path d="M21.502 22.0961C22.3702 22.3089 23.2126 22.6163 24.0138 23.0128V23.0128C23.212 22.6177 22.3698 22.3103 21.502 22.0961V22.0961Z" fill="#0036B0"/>
<path d="M20.9878 1.95056L14.5928 9.64034L20.9878 1.95056Z" fill="#0036B0"/>
<path d="M6.70539 12.8629C7.57924 12.3061 8.55583 11.93 9.57746 11.7569C9.97952 11.6883 10.3867 11.6538 10.7946 11.6539C10.3867 11.6538 9.97952 11.6883 9.57746 11.7569V11.7569C8.16558 11.9956 6.84757 12.6212 5.76999 13.5642C4.69241 14.5071 3.89749 15.7305 3.47363 17.0983C4.01615 15.3487 5.16119 13.8481 6.70539 12.8629Z" fill="#0036B0"/>
<path d="M7.94873 8.38013L12.4321 10.1888C12.3207 9.97309 12.2006 9.76727 12.0719 9.57134C12.2006 9.76835 12.3207 9.97417 12.4321 10.1888L7.94873 8.38013Z" fill="#0036B0"/>
<path d="M16.667 13.5747C17.609 13.9908 18.4981 14.5174 19.3158 15.1434C18.5035 14.5095 17.6133 13.9823 16.667 13.5747V13.5747Z" fill="#0036B0"/>
<path d="M17.0612 23.6906C17.5804 23.6119 18.1048 23.5717 18.6299 23.5703C18.1051 23.5802 17.5814 23.6204 17.0612 23.6906C14.533 24.0947 12.2465 25.4274 10.6489 27.4281V27.4281C12.2465 25.4274 14.533 24.0947 17.0612 23.6906Z" fill="#0036B0"/>
<path d="M20.6766 16.3675C20.5736 16.2559 20.4609 16.1518 20.353 16.0439C20.4647 16.1556 20.5757 16.2596 20.6766 16.3675Z" fill="#0036B0"/>
<path d="M21.5024 22.0939C20.7574 21.9125 19.9965 21.8042 19.2305 21.7704V21.7704C19.9965 21.8042 20.7574 21.9125 21.5024 22.0939V22.0939Z" fill="#0036B0"/>
<path d="M12.3203 15.4093C13.4187 15.4093 14.3091 14.5189 14.3091 13.4205C14.3091 12.3222 13.4187 11.4318 12.3203 11.4318C11.2219 11.4318 10.3315 12.3222 10.3315 13.4205C10.3315 14.5189 11.2219 15.4093 12.3203 15.4093Z" fill="#B8C7E9"/>
<path d="M15.3291 15.1867C16.4275 15.1867 17.3179 14.2962 17.3179 13.1979C17.3179 12.0995 16.4275 11.2091 15.3291 11.2091C14.2307 11.2091 13.3403 12.0995 13.3403 13.1979C13.3403 14.2962 14.2307 15.1867 15.3291 15.1867Z" fill="#B8C7E9"/>
<path d="M34.5493 15.9669H23.6963V29.1598H34.5493V15.9669Z" fill="white"/>
<path d="M32.2966 29.754C32.2614 29.8501 32.2431 29.9516 32.2427 30.0539C32.2427 30.2926 32.3375 30.5215 32.5063 30.6903C32.6751 30.8591 32.904 30.9539 33.1427 30.9539C33.3814 30.9539 33.6103 30.8591 33.7791 30.6903C33.9479 30.5215 34.0427 30.2926 34.0427 30.0539C34.0432 29.9333 34.0199 29.8138 33.9742 29.7023C33.8428 29.7376 33.7074 29.7557 33.5714 29.7562L32.2966 29.754Z" fill="#B8C7E9"/>
<path d="M24.5275 29.7001C24.4834 29.8121 24.4602 29.9313 24.459 30.0517C24.459 30.2904 24.5538 30.5193 24.7226 30.6881C24.8914 30.8569 25.1203 30.9517 25.359 30.9517C25.5977 30.9517 25.8266 30.8569 25.9954 30.6881C26.1642 30.5193 26.259 30.2904 26.259 30.0517C26.2586 29.9494 26.2403 29.8479 26.2051 29.7518H24.9389C24.8001 29.7526 24.6618 29.7352 24.5275 29.7001V29.7001Z" fill="#B8C7E9"/>
<path d="M33.1432 29.1517C32.957 29.1517 32.7754 29.2094 32.6234 29.3169C32.4714 29.4244 32.3565 29.5764 32.2944 29.7519H33.5633C33.6993 29.7514 33.8347 29.7333 33.9661 29.698C33.8981 29.536 33.7837 29.3977 33.6372 29.3005C33.4908 29.2033 33.3189 29.1515 33.1432 29.1517V29.1517Z" fill="#0036B0"/>
<path d="M25.3507 29.1517C25.1748 29.1517 25.0027 29.2038 24.8563 29.3014C24.7098 29.399 24.5955 29.5377 24.5278 29.7002C24.6592 29.7355 24.7946 29.7536 24.9306 29.7541H26.1995C26.1389 29.5775 26.0244 29.4243 25.8721 29.3163C25.7198 29.2082 25.5375 29.1507 25.3507 29.1517V29.1517Z" fill="#0036B0"/>
<path d="M27.4509 18.3757H26.2505V26.7595H27.4509V18.3757Z" fill="#B8C7E9"/>
<path d="M29.843 18.3757H28.6426V26.7595H29.843V18.3757Z" fill="#B8C7E9"/>
<path d="M32.2434 18.3757H31.043V26.7595H32.2434V18.3757Z" fill="#B8C7E9"/>
<path d="M33.5459 15.4099H24.9481C24.7251 15.4097 24.5042 15.4535 24.2982 15.5387C24.0921 15.6239 23.9049 15.749 23.7472 15.9067C23.5895 16.0643 23.4645 16.2516 23.3793 16.4576C23.294 16.6637 23.2503 16.8845 23.2505 17.1075V28.063C23.2503 28.286 23.294 28.5068 23.3793 28.7129C23.4645 28.9189 23.5895 29.1062 23.7472 29.2638C23.9049 29.4215 24.0921 29.5465 24.2982 29.6318C24.5042 29.717 24.7251 29.7608 24.9481 29.7606H33.5379C33.7608 29.7608 33.9817 29.717 34.1877 29.6318C34.3938 29.5465 34.581 29.4215 34.7387 29.2638C34.8964 29.1062 35.0214 28.9189 35.1066 28.7129C35.1919 28.5068 35.2356 28.286 35.2354 28.063V17.1075C35.2366 16.8849 35.1938 16.6643 35.1094 16.4583C35.0251 16.2523 34.9008 16.0651 34.7438 15.9073C34.5868 15.7495 34.4001 15.6244 34.1945 15.539C33.989 15.4536 33.7685 15.4098 33.5459 15.4099V15.4099ZM34.0345 27.4029C34.0344 27.6439 33.9386 27.8749 33.7682 28.0453C33.5978 28.2157 33.3668 28.3114 33.1259 28.3116H25.3681C25.1272 28.3114 24.8962 28.2157 24.7258 28.0453C24.5554 27.8749 24.4596 27.6439 24.4595 27.4029V17.7589C24.4596 17.518 24.5554 17.2869 24.7258 17.1166C24.8962 16.9462 25.1272 16.8504 25.3681 16.8503H33.1264C33.3673 16.8504 33.5984 16.9462 33.7687 17.1166C33.9391 17.2869 34.0349 17.518 34.035 17.7589L34.0345 27.4029Z" fill="#0036B0"/>
<path d="M28.0515 13.3267H30.4431V15.7183H31.6434V12.7265C31.6439 12.6476 31.6288 12.5693 31.5988 12.4963C31.5688 12.4232 31.5246 12.3569 31.4688 12.301C31.4129 12.2452 31.3466 12.201 31.2735 12.171C31.2005 12.141 31.1222 12.1259 31.0432 12.1264H27.4513C27.3723 12.1259 27.294 12.141 27.221 12.171C27.148 12.201 27.0816 12.2452 27.0258 12.301C26.9699 12.3569 26.9257 12.4232 26.8957 12.4963C26.8658 12.5693 26.8506 12.6476 26.8511 12.7265V15.7183H28.0515V13.3267Z" fill="#0036B0"/>
</g>
</svg>
