<svg width="36" height="31" viewBox="0 0 36 31" fill="none" xmlns="http://www.w3.org/2000/svg">
<path d="M29.1314 27.9006C28.3336 26.488 27.2644 25.2469 25.9854 24.2488C25.8454 21.7719 25.0665 19.3735 23.7246 17.2869C22.3827 15.2002 20.5236 13.4965 18.328 12.3415L28.4094 11.4156C28.576 11.4007 28.7353 11.3401 28.8697 11.2405C29.0042 11.141 29.1086 11.0063 29.1715 10.8513C29.2344 10.6963 29.2534 10.5269 29.2264 10.3618C29.1993 10.1967 29.1273 10.0422 29.0182 9.91541C28.0238 8.75062 26.7644 7.84142 25.3458 7.26416C23.9273 6.6869 22.3909 6.45842 20.8657 6.59791C20.3214 6.65105 19.7824 6.74844 19.2539 6.88911L23.7135 1.53107C23.8206 1.40153 23.8901 1.24503 23.9142 1.07869C23.9384 0.912355 23.9163 0.742575 23.8505 0.587917C23.7866 0.432371 23.6804 0.297789 23.5441 0.199359C23.4077 0.100929 23.2466 0.0425688 23.0788 0.0308664C20.7448 -0.157319 18.4232 0.519694 16.5562 1.93292C14.6892 3.34614 13.4074 5.3968 12.9549 7.69422C11.4676 5.88713 9.36769 4.69017 7.05498 4.33128C4.74227 3.9724 2.37835 4.47666 0.413403 5.74805C0.273974 5.84002 0.162213 5.96822 0.0901147 6.11889C0.0180163 6.26956 -0.0116991 6.43702 0.00415281 6.6033C0.0200047 6.76957 0.0808273 6.9284 0.180096 7.06273C0.279365 7.19707 0.413333 7.30184 0.56763 7.36581L2.56287 8.17146C2.78326 8.26122 3.02641 8.27889 3.25746 8.22193C3.48851 8.16497 3.69559 8.0363 3.849 7.85438C3.93216 7.75834 3.99111 7.64379 4.02092 7.5203C4.05072 7.39681 4.05052 7.26797 4.02031 7.14458C3.99011 7.02118 3.93079 6.90682 3.84732 6.81105C3.76385 6.71528 3.65866 6.64091 3.54054 6.59414L3.16306 6.43991C4.78591 5.90353 6.54068 5.91948 8.15351 6.48528C9.76634 7.05109 11.1465 8.1349 12.0786 9.56759C12.2073 9.7646 12.3273 9.97041 12.4388 10.185L7.95704 8.37961L6.78254 7.92502C6.58718 7.85093 6.37244 7.84543 6.17354 7.90941C5.97464 7.97339 5.80338 8.10306 5.68785 8.27715C5.60795 8.39746 5.55646 8.53438 5.53728 8.67753C5.51809 8.82067 5.53172 8.96631 5.57713 9.10341C5.62254 9.24052 5.69853 9.3655 5.79937 9.4689C5.90021 9.5723 6.02324 9.65141 6.15916 9.70025L7.87345 10.3177C7.1214 10.5616 6.404 10.9016 5.73908 11.3293C4.44751 12.1542 3.3723 13.2764 2.60344 14.6021C1.83459 15.9278 1.39446 17.4183 1.31989 18.949C1.31273 19.1159 1.35128 19.2815 1.4314 19.4281C1.51152 19.5746 1.63015 19.6965 1.77448 19.7805C1.95781 19.8886 2.17355 19.9282 2.3833 19.8922C2.50533 19.8738 2.62216 19.8301 2.72627 19.7638L13.6834 12.7778C15.9877 15.1093 17.2732 18.2594 17.2581 21.5374C17.2581 21.6404 17.2581 21.7348 17.2495 21.8373C15.3631 22.0566 13.5558 22.7207 11.9761 23.7748C10.3965 24.8289 9.08961 26.243 8.16303 27.9006C8.08635 28.0401 8.04686 28.1969 8.04837 28.3561C8.04988 28.5152 8.09234 28.6713 8.17166 28.8093C8.25142 28.9479 8.3664 29.0629 8.50495 29.1427C8.6435 29.2226 8.80069 29.2644 8.96059 29.2639H28.3425C28.5035 29.2644 28.6618 29.2227 28.8016 29.1429C28.9415 29.0631 29.058 28.9481 29.1395 28.8093C29.2121 28.6686 29.2493 28.5123 29.2479 28.354C29.2465 28.1956 29.2065 28.04 29.1314 27.9006ZM3.47367 17.1069C3.89795 15.7397 4.69305 14.5169 5.7706 13.5744C6.84815 12.6319 8.16594 12.0067 9.5775 11.7683C9.97956 11.6996 10.3867 11.6652 10.7946 11.6653C10.9316 11.6653 11.0691 11.6653 11.2061 11.6739L11.6946 11.8713L3.47367 17.1069ZM14.592 9.64039C14.5759 8.16112 14.9867 6.70859 15.7752 5.45685C15.9597 5.16395 16.1631 4.88331 16.384 4.61669C17.5577 3.20898 19.1914 2.26158 20.9962 1.94199L14.592 9.64039ZM16.2292 10.7033C17.5108 9.39522 19.2149 8.58425 21.0383 8.41466C21.2746 8.39035 21.512 8.37883 21.7496 8.38015C23.3391 8.38149 24.8896 8.87235 26.1903 9.78599L16.2292 10.7033ZM16.6665 13.5748C18.0349 14.1691 19.2846 15.0056 20.3556 16.044C20.4672 16.147 20.5713 16.2597 20.6791 16.3676C21.2181 16.9265 21.7032 17.535 22.1281 18.1849C22.5159 18.7716 22.8516 19.3913 23.1311 20.0367C23.5486 20.9904 23.8451 21.9925 24.0139 23.0198C23.2127 22.6233 22.3703 22.3159 21.502 22.1031C20.7571 21.9217 19.9962 21.8133 19.2302 21.7796H19.2129C19.1703 21.7796 19.1272 21.7709 19.0846 21.7709H19.0759V21.5374C19.077 20.5059 18.9686 19.4772 18.7524 18.4685C18.3736 16.7199 17.6668 15.059 16.6692 13.5737L16.6665 13.5748ZM26.6196 27.4369H10.649C12.2426 25.4316 14.5311 24.0977 17.0613 23.6993C17.5805 23.6206 18.1048 23.5804 18.63 23.579C18.733 23.579 18.8187 23.579 18.9212 23.5877C20.7885 23.6328 22.606 24.1999 24.1676 25.2249C24.4696 25.4101 24.7564 25.6193 25.025 25.8504C25.6167 26.3149 26.1519 26.8477 26.6196 27.4369Z" fill="#0036B0"/>
<path opacity="0.278" d="M18.1582 16.4808C18.4003 17.1259 18.5951 17.7877 18.7411 18.461C18.9299 18.2895 19.1184 18.1098 19.3068 17.9217C19.7929 17.4333 20.2482 16.9152 20.67 16.3703C20.567 16.2587 20.4543 16.1546 20.3465 16.0467C20.0168 15.7287 19.6704 15.4283 19.309 15.1467C18.9586 15.619 18.574 16.0649 18.1582 16.4808V16.4808Z" fill="#0036B0"/>
<path d="M19.3157 17.9213C19.8018 17.4329 20.257 16.9147 20.6789 16.3699V16.3699C20.257 16.9147 19.8018 17.4329 19.3157 17.9213C19.1187 18.1183 18.9301 18.2981 18.75 18.4606C18.9298 18.2984 19.1183 18.1187 19.3157 17.9213Z" fill="#CAC5FF"/>
<path opacity="0.278" d="M21.5017 22.0963L21.939 21.6077C22.1963 21.3079 22.4362 20.9989 22.6676 20.691C22.8293 20.4753 22.9846 20.2623 23.1302 20.0395C22.847 19.3959 22.5116 18.7766 22.1272 18.1877C21.4723 19.3168 20.6748 20.3569 19.7545 21.2825C19.583 21.454 19.4116 21.6169 19.2314 21.7711C19.9975 21.8049 20.7583 21.9132 21.5033 22.0946L21.5017 22.0963Z" fill="#0036B0"/>
<path d="M23.1307 20.0388C22.9851 20.2615 22.8308 20.4762 22.668 20.6902C22.8297 20.4762 22.9851 20.2615 23.1307 20.0388Z" fill="#CAC5FF"/>
<path d="M19.2123 21.7703C19.1697 21.7703 19.1266 21.7617 19.084 21.7617C19.1264 21.7688 19.1694 21.7717 19.2123 21.7703V21.7703Z" fill="#0036B0"/>
<path d="M20.6787 16.3699C21.2177 16.9288 21.7028 17.5373 22.1277 18.1872V18.1872C21.7028 17.5373 21.2177 16.9288 20.6787 16.3699V16.3699Z" fill="#0036B0"/>
<path d="M21.7498 8.3802C21.5123 8.37908 21.2749 8.39061 21.0386 8.41472C19.2152 8.58431 17.5111 9.39527 16.2295 10.7033V10.7033C17.5111 9.39527 19.2152 8.58431 21.0386 8.41472C21.278 8.39746 21.5099 8.3802 21.7498 8.3802Z" fill="#0036B0"/>
<path d="M21.502 22.0962C22.3702 22.309 23.2126 22.6164 24.0138 23.0129V23.0129C23.212 22.6178 22.3698 22.3104 21.502 22.0962V22.0962Z" fill="#0036B0"/>
<path d="M20.9868 1.95068L14.5918 9.64046L20.9868 1.95068Z" fill="#0036B0"/>
<path d="M6.70539 12.8631C7.57924 12.3062 8.55583 11.9301 9.57746 11.757C9.97952 11.6884 10.3867 11.6539 10.7946 11.6541C10.3867 11.6539 9.97952 11.6884 9.57746 11.757V11.757C8.16558 11.9957 6.84757 12.6213 5.76999 13.5643C4.69241 14.5073 3.89749 15.7306 3.47363 17.0984C4.01615 15.3489 5.16119 13.8482 6.70539 12.8631Z" fill="#0036B0"/>
<path d="M7.94824 8.38013L12.4316 10.1888C12.3202 9.97309 12.2001 9.76727 12.0714 9.57134C12.2001 9.76835 12.3202 9.97417 12.4316 10.1888L7.94824 8.38013Z" fill="#0036B0"/>
<path d="M16.667 13.575C17.609 13.9911 18.4981 14.5176 19.3158 15.1436C18.5035 14.5097 17.6133 13.9826 16.667 13.575V13.575Z" fill="#0036B0"/>
<path d="M17.0607 23.6908C17.5799 23.6121 18.1043 23.5719 18.6294 23.5706C18.1046 23.5805 17.5809 23.6206 17.0607 23.6908C14.5325 24.0949 12.246 25.4277 10.6484 27.4284V27.4284C12.246 25.4277 14.5325 24.0949 17.0607 23.6908Z" fill="#0036B0"/>
<path d="M20.6761 16.3677C20.5731 16.2561 20.4604 16.152 20.3525 16.0442C20.4642 16.1558 20.5753 16.2599 20.6761 16.3677Z" fill="#0036B0"/>
<path d="M21.5014 22.0941C20.7564 21.9127 19.9955 21.8043 19.2295 21.7705V21.7705C19.9955 21.8043 20.7564 21.9127 21.5014 22.0941V22.0941Z" fill="#0036B0"/>
<path d="M12.3198 15.4094C13.4182 15.4094 14.3086 14.519 14.3086 13.4207C14.3086 12.3223 13.4182 11.4319 12.3198 11.4319C11.2215 11.4319 10.3311 12.3223 10.3311 13.4207C10.3311 14.519 11.2215 15.4094 12.3198 15.4094Z" fill="#E82D56"/>
<path d="M15.3296 15.1865C16.428 15.1865 17.3184 14.2961 17.3184 13.1978C17.3184 12.0994 16.428 11.209 15.3296 11.209C14.2312 11.209 13.3408 12.0994 13.3408 13.1978C13.3408 14.2961 14.2312 15.1865 15.3296 15.1865Z" fill="#E82D56"/>
<path d="M34.5493 15.967H23.6963V29.1599H34.5493V15.967Z" fill="white"/>
<path d="M32.2971 29.7542C32.2619 29.8502 32.2436 29.9517 32.2432 30.054C32.2432 30.2927 32.338 30.5216 32.5068 30.6904C32.6756 30.8592 32.9045 30.954 33.1432 30.954C33.3819 30.954 33.6108 30.8592 33.7796 30.6904C33.9484 30.5216 34.0432 30.2927 34.0432 30.054C34.0437 29.9334 34.0204 29.8139 33.9747 29.7024C33.8433 29.7377 33.7079 29.7558 33.5719 29.7563L32.2971 29.7542Z" fill="#E82D56"/>
<path d="M24.5285 29.7002C24.4844 29.8122 24.4611 29.9314 24.46 30.0518C24.46 30.2905 24.5548 30.5194 24.7236 30.6882C24.8924 30.857 25.1213 30.9518 25.36 30.9518C25.5987 30.9518 25.8276 30.857 25.9964 30.6882C26.1652 30.5194 26.26 30.2905 26.26 30.0518C26.2595 29.9495 26.2413 29.848 26.2061 29.752H24.9399C24.8011 29.7527 24.6628 29.7353 24.5285 29.7002V29.7002Z" fill="#E82D56"/>
<path d="M33.1437 29.1519C32.9575 29.1518 32.7759 29.2095 32.6239 29.317C32.4719 29.4245 32.3569 29.5765 32.2949 29.752H33.5638C33.6998 29.7516 33.8352 29.7334 33.9666 29.6981C33.8986 29.5361 33.7841 29.3978 33.6377 29.3006C33.4913 29.2034 33.3194 29.1517 33.1437 29.1519V29.1519Z" fill="#0036B0"/>
<path d="M25.3512 29.1519C25.1752 29.1518 25.0032 29.2039 24.8567 29.3015C24.7103 29.3991 24.596 29.5379 24.5283 29.7003C24.6597 29.7356 24.7951 29.7537 24.9311 29.7542H26.2C26.1394 29.5776 26.0249 29.4245 25.8726 29.3164C25.7203 29.2083 25.5379 29.1508 25.3512 29.1519V29.1519Z" fill="#0036B0"/>
<path d="M27.4514 18.376H26.251V26.7598H27.4514V18.376Z" fill="#B8C7E9"/>
<path d="M29.8439 18.376H28.6436V26.7598H29.8439V18.376Z" fill="#B8C7E9"/>
<path d="M32.2443 18.376H31.0439V26.7598H32.2443V18.376Z" fill="#B8C7E9"/>
<path d="M33.5454 15.4099H24.9476C24.7246 15.4097 24.5037 15.4535 24.2977 15.5387C24.0916 15.6239 23.9044 15.749 23.7467 15.9067C23.5891 16.0643 23.464 16.2516 23.3788 16.4576C23.2935 16.6637 23.2498 16.8845 23.25 17.1075V28.063C23.2498 28.286 23.2935 28.5068 23.3788 28.7129C23.464 28.9189 23.5891 29.1062 23.7467 29.2638C23.9044 29.4215 24.0916 29.5465 24.2977 29.6318C24.5037 29.717 24.7246 29.7608 24.9476 29.7606H33.5374C33.7604 29.7608 33.9812 29.717 34.1872 29.6318C34.3933 29.5465 34.5805 29.4215 34.7382 29.2638C34.8959 29.1062 35.0209 28.9189 35.1062 28.7129C35.1914 28.5068 35.2351 28.286 35.2349 28.063V17.1075C35.2361 16.8849 35.1933 16.6643 35.109 16.4583C35.0246 16.2523 34.9003 16.0651 34.7433 15.9073C34.5863 15.7495 34.3996 15.6244 34.194 15.539C33.9885 15.4536 33.768 15.4098 33.5454 15.4099ZM34.034 27.4029C34.0339 27.6439 33.9381 27.8749 33.7677 28.0453C33.5974 28.2157 33.3663 28.3114 33.1254 28.3116H25.3677C25.1267 28.3114 24.8957 28.2157 24.7253 28.0453C24.5549 27.8749 24.4591 27.6439 24.459 27.4029V17.7589C24.4591 17.518 24.5549 17.2869 24.7253 17.1166C24.8957 16.9462 25.1267 16.8504 25.3677 16.8503H33.1259C33.3669 16.8504 33.5979 16.9462 33.7683 17.1166C33.9386 17.2869 34.0344 17.518 34.0346 17.7589L34.034 27.4029Z" fill="#0036B0"/>
<path d="M28.051 13.3269H30.4426V15.7185H31.643V12.7267C31.6435 12.6477 31.6283 12.5694 31.5983 12.4964C31.5683 12.4233 31.5241 12.357 31.4683 12.3011C31.4124 12.2453 31.3461 12.2011 31.273 12.1711C31.2 12.1412 31.1217 12.126 31.0428 12.1265H27.4508C27.3718 12.126 27.2936 12.1412 27.2205 12.1711C27.1475 12.2011 27.0811 12.2453 27.0253 12.3011C26.9694 12.357 26.9252 12.4233 26.8953 12.4964C26.8653 12.5694 26.8501 12.6477 26.8506 12.7267V15.7185H28.051V13.3269Z" fill="#0036B0"/>
</svg>
