<svg width="32" height="32" viewBox="0 0 32 32" fill="none" xmlns="http://www.w3.org/2000/svg">
<g opacity="0.59">
<path d="M10.969 1.79775L9.6748 3.09196L10.969 4.38617L12.2632 3.09196C12.3566 3.00897 12.432 2.90777 12.4849 2.79458C12.5377 2.68138 12.5669 2.55857 12.5706 2.4337C12.5743 2.30882 12.5524 2.18452 12.5063 2.06841C12.4602 1.9523 12.3908 1.84683 12.3025 1.7585C12.2141 1.67016 12.1087 1.60081 11.9926 1.5547C11.8765 1.5086 11.7521 1.48671 11.6273 1.49039C11.5024 1.49406 11.3796 1.52322 11.2664 1.57608C11.1532 1.62893 11.052 1.70437 10.969 1.79775V1.79775Z" fill="#B8C7E9"/>
<path d="M15.013 2.92055L13.7188 4.21477L15.013 5.50898L16.3072 4.21477C16.4006 4.13178 16.476 4.03058 16.5288 3.91738C16.5817 3.80418 16.6109 3.68138 16.6145 3.5565C16.6182 3.43163 16.5963 3.30732 16.5502 3.19121C16.5041 3.0751 16.4348 2.96964 16.3464 2.8813C16.2581 2.79296 16.1526 2.72361 16.0365 2.67751C15.9204 2.6314 15.7961 2.60951 15.6712 2.61319C15.5463 2.61687 15.4235 2.64603 15.3103 2.69888C15.1972 2.75174 15.0959 2.82717 15.013 2.92055V2.92055Z" fill="#B8C7E9"/>
<path d="M17.7457 5.08821L4.98799 1.5755C4.83225 1.53266 4.66798 1.53149 4.51164 1.57209C4.35529 1.61269 4.21236 1.69364 4.09714 1.80685L1.80099 4.10299C1.69946 4.20514 1.6233 4.32968 1.57863 4.4666C1.53395 4.60352 1.52202 4.74901 1.54377 4.89138C1.56412 5.03429 1.61934 5.17 1.70454 5.28652C1.78975 5.40304 1.90232 5.4968 2.03233 5.55952L5.99909 7.59036C6.01834 7.60053 6.03835 7.60918 6.05895 7.61624C6.17479 7.66799 6.30039 7.69428 6.42726 7.69335C6.66582 7.69335 6.8946 7.59859 7.06328 7.4299C7.23197 7.26122 7.32674 7.03243 7.32674 6.79387C7.32588 6.63336 7.28264 6.47592 7.20139 6.33748C7.12015 6.19904 7.00378 6.08451 6.86406 6.00549L4.89362 4.9685C4.78914 4.91478 4.69879 4.83719 4.6299 4.74202C4.56102 4.64685 4.51554 4.53679 4.49716 4.42075C4.47877 4.30472 4.488 4.18599 4.52409 4.07419C4.56018 3.96239 4.62212 3.86067 4.70488 3.77728V3.77728C4.79657 3.68362 4.91195 3.6166 5.03873 3.58336C5.16552 3.55013 5.29894 3.55192 5.42478 3.58854L17.2571 6.84457C17.3516 6.87094 17.4504 6.87833 17.5478 6.86629C17.6452 6.85426 17.7392 6.82305 17.8244 6.77446C17.9097 6.72587 17.9845 6.66087 18.0444 6.58321C18.1044 6.50556 18.1484 6.41678 18.1738 6.32203L18.2682 5.99847C18.3182 5.80852 18.2914 5.60653 18.1936 5.43619C18.0958 5.26584 17.9349 5.14084 17.7457 5.08821V5.08821Z" fill="#B8C7E9"/>
<path d="M27.4546 16.9896C27.37 16.904 27.2692 16.8361 27.1581 16.7897C27.0471 16.7433 26.9279 16.7195 26.8075 16.7195C26.6872 16.7195 26.568 16.7433 26.4569 16.7897C26.3458 16.8361 26.2451 16.904 26.1604 16.9896L24.8662 18.2838L26.1604 19.578L27.4546 18.2838C27.6237 18.1108 27.7183 17.8785 27.7183 17.6367C27.7183 17.3948 27.6237 17.1625 27.4546 16.9896V16.9896Z" fill="#FF0080"/>
<path d="M9.93265 9.59479L13.5829 11.4628C13.6194 11.4814 13.6593 11.4926 13.7002 11.4958C13.7411 11.499 13.7823 11.4941 13.8213 11.4814C13.8603 11.4686 13.8964 11.4484 13.9276 11.4217C13.9588 11.395 13.9844 11.3624 14.0029 11.3258L14.5514 10.2548C14.57 10.2183 14.5812 10.1784 14.5844 10.1375C14.5876 10.0966 14.5827 10.0554 14.57 10.0164C14.5572 9.97739 14.537 9.94127 14.5103 9.9101C14.4836 9.87893 14.451 9.85333 14.4144 9.83476L10.679 7.92418C10.4765 7.82083 10.2415 7.80154 10.0249 7.87051C9.80832 7.93947 9.62769 8.09111 9.52228 8.29249V8.29249C9.46221 8.40463 9.42517 8.52764 9.41333 8.6543C9.40148 8.78096 9.41508 8.9087 9.45331 9.03003C9.49154 9.15136 9.55364 9.26383 9.63595 9.36081C9.71827 9.4578 9.81915 9.53735 9.93265 9.59479Z" fill="#B8C7E9"/>
<path d="M27.6769 24.2549L23.9669 10.7773L22.2019 11.2659L25.775 24.2296L24.7466 25.258L19.2716 14.5564L17.6436 15.3874L23.6832 27.2111C23.7507 27.3375 23.8459 27.4471 23.9615 27.5317C24.0772 27.6162 24.2104 27.6737 24.3514 27.6997C24.3995 27.7068 24.4483 27.7097 24.497 27.7083C24.6164 27.7081 24.7346 27.6843 24.8448 27.6383C24.955 27.5923 25.055 27.525 25.1392 27.4403L27.4354 25.1442C27.5514 25.0308 27.6349 24.8883 27.6772 24.7316C27.7194 24.5749 27.7187 24.4097 27.6753 24.2533L27.6769 24.2549Z" fill="#B8C7E9"/>
<path d="M10.3777 29.2502C10.3347 29.2516 10.2917 29.2487 10.2493 29.2415C10.11 29.2206 9.97733 29.168 9.86151 29.0878C9.74568 29.0076 9.64979 28.9019 9.58119 28.7788L6.34243 22.9096L0.473178 19.6708C0.350091 19.6023 0.244374 19.5064 0.164162 19.3906C0.0839489 19.2747 0.0313801 19.142 0.0104986 19.0027C-0.0111921 18.863 0.000835706 18.7201 0.0455803 18.5859C0.0903249 18.4518 0.166488 18.3303 0.267722 18.2316L1.86985 16.6294C1.98385 16.5146 2.12666 16.4325 2.2833 16.3918C2.43994 16.3511 2.60465 16.3533 2.76016 16.3981L7.47271 17.6923L19.9484 3.05532C20.7155 2.161 21.6547 1.43012 22.7101 0.906149C23.7654 0.382175 24.9154 0.0758149 26.0916 0.00529382C26.511 -0.0197741 26.931 0.044385 27.3239 0.193538C27.7168 0.342692 28.0735 0.573447 28.3707 0.870586C28.6678 1.16772 28.8986 1.52449 29.0477 1.91735C29.1969 2.3102 29.261 2.73022 29.236 3.14969C29.1165 5.29205 28.2103 7.31488 26.6912 8.8302C26.5311 8.99324 26.3624 9.14768 26.1859 9.29288L11.5689 21.7766L12.8631 26.4805C12.9063 26.6372 12.9074 26.8025 12.8662 26.9597C12.825 27.1169 12.743 27.2604 12.6285 27.3757L11.0264 28.9778C10.9419 29.0651 10.8406 29.1343 10.7287 29.1814C10.6167 29.2285 10.4964 29.2524 10.375 29.2518L10.3777 29.2502ZM2.41773 18.6516L7.45599 21.4277C7.60768 21.5109 7.73247 21.6357 7.81567 21.7874L10.5918 26.8257L10.9601 26.4574L9.64914 21.7022C9.60196 21.5351 9.60436 21.3578 9.65606 21.192C9.70775 21.0262 9.80652 20.8789 9.94034 20.7682L25.0028 7.91616C25.1398 7.79645 25.2767 7.67619 25.397 7.54785C26.5985 6.34695 27.3153 4.74545 27.4106 3.04939C27.4194 2.88707 27.3942 2.72471 27.3367 2.57269C27.2791 2.42068 27.1904 2.28237 27.0762 2.16662C26.9645 2.04703 26.8268 1.95469 26.6738 1.89672C26.5207 1.83875 26.3564 1.81671 26.1935 1.83229C25.2628 1.88747 24.3528 2.12992 23.518 2.54513C22.6832 2.96034 21.9409 3.53976 21.3353 4.24869L8.48381 19.3112C8.37151 19.4429 8.2242 19.5402 8.05891 19.5918C7.89362 19.6433 7.71711 19.647 7.54982 19.6024L2.78604 18.2914L2.41773 18.6516Z" fill="#0036B0"/>
<path d="M27.7281 12.7651H23.8896V16.1668H27.7281V12.7651Z" fill="white"/>
<path d="M31.2319 16.1667H20.3848V29.3531H31.2319V16.1667Z" fill="white"/>
<path d="M28.9807 29.947C28.9454 30.043 28.9272 30.1445 28.9268 30.2468C28.9268 30.4854 29.0215 30.7143 29.1903 30.883C29.359 31.0518 29.5879 31.1466 29.8265 31.1466C30.0651 31.1466 30.294 31.0518 30.4627 30.883C30.6315 30.7143 30.7263 30.4854 30.7263 30.2468C30.7267 30.1264 30.7034 30.0071 30.6578 29.8958C30.5264 29.9311 30.391 29.9492 30.2549 29.9497L28.9807 29.947Z" fill="#0036B0"/>
<path d="M21.2159 29.8931C21.1719 30.0049 21.1487 30.1239 21.1475 30.2441C21.1475 30.4827 21.2422 30.7116 21.411 30.8803C21.5797 31.0491 21.8086 31.1439 22.0472 31.1439C22.2858 31.1439 22.5147 31.0491 22.6834 30.8803C22.8522 30.7116 22.9469 30.4827 22.9469 30.2441C22.9465 30.1418 22.9282 30.0404 22.893 29.9443H21.6274C21.4886 29.9452 21.3503 29.928 21.2159 29.8931V29.8931Z" fill="#0036B0"/>
<path d="M29.818 29.3445C29.6319 29.3445 29.4504 29.4021 29.2985 29.5095C29.1466 29.6169 29.0317 29.7687 28.9697 29.9441H30.238C30.3741 29.9437 30.5095 29.9256 30.6409 29.8902C30.5733 29.7279 30.459 29.5893 30.3125 29.4921C30.166 29.3949 29.9938 29.3435 29.818 29.3445V29.3445Z" fill="#0036B0"/>
<path d="M22.0382 29.3447C21.8623 29.3447 21.6903 29.3968 21.544 29.4944C21.3976 29.592 21.2834 29.7308 21.2158 29.8931C21.3472 29.9285 21.4826 29.9466 21.6186 29.9471H22.8875C22.8244 29.772 22.7092 29.6204 22.5573 29.5127C22.4055 29.405 22.2243 29.3464 22.0382 29.3447V29.3447Z" fill="#0036B0"/>
<path d="M24.1378 18.5747H22.9385V26.9542H24.1378V18.5747Z" fill="#B8C7E9"/>
<path d="M26.5274 18.5747H25.3281V26.9542H26.5274V18.5747Z" fill="#B8C7E9"/>
<path d="M28.9268 18.5747H27.7275V26.9542H28.9268V18.5747Z" fill="#B8C7E9"/>
<path d="M30.2209 15.6096H21.6359C21.4131 15.6094 21.1924 15.6531 20.9865 15.7383C20.7806 15.8235 20.5934 15.9485 20.4359 16.106C20.2783 16.2636 20.1533 16.4507 20.0682 16.6566C19.983 16.8626 19.9392 17.0833 19.9395 17.3061V28.2562C19.9392 28.4791 19.983 28.6998 20.0682 28.9057C20.1533 29.1116 20.2783 29.2987 20.4359 29.4563C20.5934 29.6139 20.7806 29.7388 20.9865 29.824C21.1924 29.9092 21.4131 29.9529 21.6359 29.9527H30.2209C30.4437 29.9529 30.6644 29.9092 30.8704 29.824C31.0763 29.7388 31.2634 29.6139 31.421 29.4563C31.5785 29.2987 31.7035 29.1116 31.7887 28.9057C31.8739 28.6998 31.9176 28.4791 31.9174 28.2562V17.3061C31.9164 16.8565 31.7373 16.4256 31.4194 16.1076C31.1014 15.7897 30.6705 15.6106 30.2209 15.6096ZM30.7181 27.6048C30.7179 27.8456 30.6222 28.0765 30.4519 28.2468C30.2817 28.417 30.0508 28.5128 29.81 28.5129H22.056C21.8152 28.5128 21.5843 28.417 21.4141 28.2468C21.2438 28.0765 21.1481 27.8456 21.1479 27.6048V17.957C21.1481 17.7162 21.2438 17.4853 21.4141 17.315C21.5843 17.1448 21.8152 17.049 22.056 17.0489H29.8078C30.0486 17.049 30.2795 17.1448 30.4498 17.315C30.6201 17.4853 30.7158 17.7162 30.7159 17.957L30.7181 27.6048Z" fill="#0036B0"/>
<path d="M24.7286 13.5277H27.1191V15.9182H28.3184V12.928C28.3189 12.8491 28.3038 12.7709 28.2738 12.698C28.2438 12.625 28.1997 12.5587 28.1439 12.5029C28.0881 12.4471 28.0218 12.403 27.9489 12.373C27.8759 12.343 27.7977 12.3279 27.7188 12.3284H24.129C24.0501 12.3279 23.9719 12.343 23.8989 12.373C23.8259 12.403 23.7596 12.4471 23.7038 12.5029C23.648 12.5587 23.6039 12.625 23.5739 12.698C23.544 12.7709 23.5288 12.8491 23.5293 12.928V15.9182H24.7286V13.5277Z" fill="#0036B0"/>
</g>
</svg>
