<svg width="29" height="29" viewBox="0 0 29 29" fill="none" xmlns="http://www.w3.org/2000/svg">
<path d="M10.6573 1.74529L9.39917 3.00337L10.6573 4.26145L11.9153 3.00337C12.0768 2.83544 12.1659 2.61089 12.1636 2.37796C12.1613 2.14502 12.0678 1.92227 11.9031 1.75756C11.7383 1.59284 11.5156 1.49928 11.2827 1.49699C11.0497 1.4947 10.8252 1.58385 10.6573 1.74529V1.74529Z" fill="#E82D56"/>
<path d="M14.5977 2.83672L13.3396 4.0948L14.5977 5.35288L15.8558 4.0948C15.9411 4.0128 16.0091 3.91461 16.056 3.80597C16.1029 3.69734 16.1277 3.58045 16.1288 3.46213C16.13 3.34382 16.1076 3.22646 16.0628 3.11692C16.0181 3.00739 15.9519 2.90787 15.8683 2.82421C15.7846 2.74054 15.6851 2.6744 15.5756 2.62966C15.466 2.58492 15.3487 2.56248 15.2303 2.56364C15.112 2.56481 14.9951 2.58956 14.8865 2.63645C14.7779 2.68334 14.6797 2.75142 14.5977 2.83672V2.83672Z" fill="#E82D56"/>
<path d="M17.2551 4.94423L4.85222 1.52859C4.70074 1.48682 4.54093 1.4856 4.38884 1.52507C4.23674 1.56454 4.09769 1.6433 3.98563 1.75346L1.75312 3.98597C1.65453 4.08531 1.58059 4.20638 1.53723 4.33945C1.49387 4.47252 1.4823 4.61391 1.50345 4.75226C1.52322 4.89124 1.57691 5.02322 1.65976 5.13654C1.74261 5.24987 1.85209 5.34106 1.97853 5.40206L5.83582 7.37627C5.85455 7.38604 5.87403 7.39434 5.89406 7.40108C6.00668 7.45137 6.12878 7.47693 6.25212 7.47603C6.4841 7.47603 6.70658 7.38388 6.87061 7.21985C7.03464 7.05582 7.1268 6.83334 7.1268 6.60136C7.12588 6.44536 7.08382 6.29236 7.00485 6.15781C6.92588 6.02327 6.81281 5.91194 6.67706 5.83508V5.83508L4.75246 4.82722C4.65091 4.77501 4.56309 4.69959 4.49614 4.60709C4.42919 4.51459 4.385 4.40761 4.36714 4.29483C4.34928 4.18205 4.35826 4.06664 4.39335 3.95798C4.42844 3.84932 4.48866 3.75046 4.56911 3.66943V3.66943C4.65838 3.57822 4.77076 3.51298 4.89424 3.48069C5.01771 3.44839 5.14764 3.45026 5.27014 3.48609L16.7751 6.65205C16.867 6.67769 16.9631 6.68488 17.0578 6.67318C17.1524 6.66149 17.2439 6.63115 17.3267 6.58391C17.4096 6.53668 17.4823 6.47349 17.5407 6.398C17.599 6.3225 17.6418 6.2362 17.6665 6.14408L17.7582 5.82753C17.7837 5.73649 17.7909 5.64131 17.7793 5.54748C17.7678 5.45365 17.7377 5.36305 17.6909 5.28091C17.6442 5.19876 17.5815 5.12671 17.5067 5.06892C17.4319 5.01113 17.3464 4.96875 17.2551 4.94423V4.94423Z" fill="#B8C7E9"/>
<path d="M26.6868 16.5161C26.6045 16.4329 26.5066 16.3669 26.3986 16.3218C26.2906 16.2767 26.1748 16.2535 26.0578 16.2535C25.9408 16.2535 25.8249 16.2767 25.717 16.3218C25.609 16.3669 25.511 16.4329 25.4287 16.5161L24.1707 17.7741L25.4287 19.0322L26.6868 17.7741C26.77 17.6918 26.836 17.5939 26.8811 17.4859C26.9261 17.3779 26.9493 17.2621 26.9493 17.1451C26.9493 17.0281 26.9261 16.9123 26.8811 16.8043C26.836 16.6963 26.77 16.5983 26.6868 16.5161Z" fill="#E82D56"/>
<path d="M25.5953 13.8332C25.7567 13.6653 25.8459 13.4407 25.8436 13.2078C25.8413 12.9749 25.7477 12.7521 25.583 12.5874C25.4183 12.4227 25.1955 12.3291 24.9626 12.3268C24.7297 12.3245 24.5051 12.4137 24.3372 12.5751L23.0791 13.8332L24.3372 15.0913L25.5953 13.8332Z" fill="#E82D56"/>
<path d="M9.65528 9.32672L13.2041 11.1429C13.2397 11.161 13.2784 11.1719 13.3182 11.175C13.3579 11.178 13.3979 11.1733 13.4358 11.1609C13.4737 11.1485 13.5088 11.1288 13.5391 11.1029C13.5694 11.0769 13.5943 11.0453 13.6123 11.0097L14.1457 9.96844C14.1637 9.93289 14.1746 9.89413 14.1777 9.85438C14.1808 9.81462 14.176 9.77465 14.1636 9.73674C14.1512 9.69884 14.1315 9.66373 14.1056 9.63344C14.0797 9.60316 14.048 9.57828 14.0125 9.56022L10.38 7.70249C10.1832 7.60169 9.95455 7.58276 9.74385 7.64983C9.53314 7.7169 9.35748 7.86454 9.25516 8.06056V8.06056C9.1959 8.16946 9.15922 8.28919 9.14732 8.41259C9.13542 8.536 9.14854 8.66053 9.1859 8.77875C9.22325 8.89696 9.28408 9.00643 9.36473 9.10058C9.44538 9.19474 9.54421 9.27165 9.65528 9.32672V9.32672Z" fill="#B8C7E9"/>
<path d="M26.9107 23.5797L23.3026 10.4758L21.5867 10.9509L25.0605 23.5555L24.0608 24.5552L18.7373 14.1476L17.1545 14.9565L23.0281 26.4534C23.0935 26.576 23.1855 26.6824 23.2976 26.7646C23.4096 26.8469 23.5386 26.9029 23.6752 26.9285C23.7221 26.9353 23.7696 26.938 23.817 26.9366C23.9331 26.9367 24.048 26.914 24.1552 26.8697C24.2625 26.8253 24.3599 26.7603 24.442 26.6783L26.6745 24.4458C26.7858 24.3343 26.866 24.1957 26.9069 24.0436C26.9479 23.8916 26.9483 23.7314 26.908 23.5792L26.9107 23.5797Z" fill="#B8C7E9"/>
<path d="M10.0905 28.4379C10.0486 28.4394 10.0067 28.4367 9.9654 28.4298C9.8299 28.4095 9.70087 28.3584 9.58822 28.2805C9.47556 28.2025 9.3823 28.0997 9.31559 27.9801L6.16635 22.2731L0.459953 19.1217C0.340612 19.0553 0.238044 18.9624 0.160094 18.8503C0.0821448 18.7381 0.0308785 18.6096 0.0102146 18.4746C-0.0108685 18.3388 0.000790093 18.2 0.0442183 18.0696C0.0876465 17.9392 0.161587 17.8211 0.259888 17.7251L1.8178 16.1671C1.92875 16.0553 2.06776 15.9754 2.22025 15.9359C2.37273 15.8963 2.53305 15.8985 2.68438 15.9423L7.26805 17.2004L19.3894 2.97104C20.1353 2.10141 21.0485 1.39069 22.0747 0.881163C23.1009 0.37164 24.2191 0.073725 25.3627 0.00514087C25.7706 -0.0192181 26.179 0.0431811 26.561 0.188222C26.943 0.333263 27.2899 0.557652 27.5789 0.846583C27.8678 1.13551 28.0922 1.48242 28.2372 1.86442C28.3823 2.24642 28.4447 2.65483 28.4203 3.06271C28.3044 5.14586 27.4233 7.11285 25.9462 8.5863C25.7905 8.74478 25.6265 8.89491 25.455 9.03604L11.2488 21.1709L12.5069 25.7449C12.5487 25.8963 12.5499 26.0561 12.5104 26.2082C12.471 26.3603 12.3922 26.4994 12.282 26.6114L10.7182 28.1693C10.6377 28.254 10.5407 28.3213 10.4332 28.3671C10.3257 28.4129 10.21 28.4363 10.0932 28.4357L10.0905 28.4379ZM2.35112 18.1322L7.24971 20.8317C7.39732 20.9127 7.51874 21.0341 7.59969 21.1817L10.2992 26.0803L10.6573 25.7222L9.38246 21.0986C9.33659 20.9361 9.33892 20.7638 9.38918 20.6025C9.43945 20.4413 9.53547 20.2982 9.66557 20.1905L24.3117 7.69384C24.4449 7.57736 24.5781 7.46034 24.6951 7.33577C25.8634 6.16814 26.5605 4.61099 26.6532 2.96188C26.6621 2.80421 26.6378 2.64644 26.5821 2.49869C26.5264 2.35093 26.4404 2.21646 26.3296 2.10392C26.2209 1.98796 26.087 1.89849 25.9383 1.8424C25.7895 1.7863 25.6299 1.76508 25.4717 1.78037C24.5664 1.83387 23.6812 2.06959 22.8692 2.47341C22.0572 2.87723 21.3351 3.44084 20.7462 4.13044L8.24949 18.7766C8.14018 18.9037 7.99726 18.9974 7.83712 19.047C7.67697 19.0966 7.5061 19.1001 7.34408 19.057L2.71188 17.7822L2.35112 18.1322Z" fill="#0036B0"/>
</svg>
