<svg width="32" height="32" viewBox="0 0 32 32" fill="none" xmlns="http://www.w3.org/2000/svg">
<path d="M10.9695 1.79775L9.67529 3.09196L10.9695 4.38617L12.2637 3.09196C12.3571 3.00897 12.4325 2.90777 12.4854 2.79458C12.5382 2.68138 12.5674 2.55857 12.5711 2.4337C12.5747 2.30882 12.5529 2.18452 12.5068 2.06841C12.4607 1.9523 12.3913 1.84683 12.303 1.7585C12.2146 1.67016 12.1092 1.60081 11.9931 1.5547C11.877 1.5086 11.7526 1.48671 11.6278 1.49039C11.5029 1.49406 11.3801 1.52322 11.2669 1.57608C11.1537 1.62893 11.0525 1.70437 10.9695 1.79775V1.79775Z" fill="#E82D56"/>
<path d="M15.013 2.92055L13.7188 4.21477L15.013 5.50898L16.3072 4.21477C16.4006 4.13178 16.476 4.03058 16.5288 3.91738C16.5817 3.80418 16.6109 3.68138 16.6145 3.5565C16.6182 3.43163 16.5963 3.30732 16.5502 3.19121C16.5041 3.0751 16.4348 2.96964 16.3464 2.8813C16.2581 2.79296 16.1526 2.72361 16.0365 2.67751C15.9204 2.6314 15.7961 2.60951 15.6712 2.61319C15.5463 2.61687 15.4235 2.64603 15.3103 2.69888C15.1972 2.75174 15.0959 2.82717 15.013 2.92055V2.92055Z" fill="#E82D56"/>
<path d="M17.7462 5.08833L4.98848 1.57563C4.83273 1.53278 4.66847 1.53161 4.51212 1.57221C4.35578 1.61281 4.21285 1.69376 4.09763 1.80697L1.80148 4.10312C1.69995 4.20527 1.62379 4.3298 1.57912 4.46672C1.53444 4.60365 1.52251 4.74913 1.54426 4.89151C1.56461 5.03441 1.61983 5.17012 1.70503 5.28664C1.79024 5.40316 1.90281 5.49692 2.03282 5.55964L5.99958 7.59048C6.01883 7.60065 6.03884 7.60931 6.05944 7.61636C6.17528 7.66811 6.30088 7.6944 6.42775 7.69347C6.6663 7.69347 6.89509 7.59871 7.06377 7.43003C7.23246 7.26134 7.32723 7.03255 7.32723 6.794C7.32637 6.63348 7.28313 6.47604 7.20188 6.3376C7.12064 6.19916 7.00426 6.08463 6.86454 6.00561L4.89411 4.96862C4.78962 4.9149 4.69927 4.83731 4.63039 4.74214C4.56151 4.64698 4.51603 4.53691 4.49765 4.42088C4.47926 4.30484 4.48849 4.18611 4.52458 4.07431C4.56067 3.96251 4.62261 3.86079 4.70537 3.7774V3.7774C4.79706 3.68375 4.91244 3.61672 5.03922 3.58349C5.166 3.55025 5.29943 3.55204 5.42527 3.58867L17.2576 6.84469C17.3521 6.87106 17.4509 6.87845 17.5483 6.86641C17.6457 6.85438 17.7397 6.82317 17.8249 6.77458C17.9102 6.72599 17.9849 6.66099 18.0449 6.58333C18.1049 6.50568 18.1489 6.41691 18.1743 6.32215L18.2687 5.9986C18.3187 5.80865 18.2919 5.60665 18.1941 5.43631C18.0963 5.26597 17.9354 5.14096 17.7462 5.08833V5.08833Z" fill="#B8C7E9"/>
<path d="M27.4546 16.9897C27.37 16.9041 27.2692 16.8362 27.1581 16.7898C27.0471 16.7435 26.9279 16.7196 26.8075 16.7196C26.6872 16.7196 26.568 16.7435 26.4569 16.7898C26.3458 16.8362 26.2451 16.9041 26.1604 16.9897L24.8662 18.2839L26.1604 19.5781L27.4546 18.2839C27.6237 18.1109 27.7183 17.8786 27.7183 17.6368C27.7183 17.3949 27.6237 17.1627 27.4546 16.9897V16.9897Z" fill="#FF0080"/>
<path d="M9.93265 9.59492L13.5829 11.4629C13.6194 11.4815 13.6593 11.4927 13.7002 11.4959C13.7411 11.4991 13.7823 11.4942 13.8213 11.4815C13.8603 11.4688 13.8964 11.4485 13.9276 11.4218C13.9588 11.3951 13.9844 11.3625 14.0029 11.3259L14.5514 10.255C14.57 10.2184 14.5812 10.1785 14.5844 10.1376C14.5876 10.0967 14.5827 10.0555 14.57 10.0165C14.5572 9.97752 14.537 9.94139 14.5103 9.91022C14.4836 9.87905 14.451 9.85345 14.4144 9.83488L10.679 7.9243C10.4765 7.82095 10.2415 7.80166 10.0249 7.87063C9.80832 7.93959 9.62769 8.09124 9.52228 8.29261V8.29261C9.46221 8.40475 9.42517 8.52776 9.41333 8.65442C9.40148 8.78108 9.41508 8.90882 9.45331 9.03015C9.49154 9.15148 9.55364 9.26395 9.63595 9.36093C9.71827 9.45792 9.81915 9.53747 9.93265 9.59492Z" fill="#B8C7E9"/>
<path d="M27.6769 24.2551L23.9669 10.7775L22.2019 11.266L25.775 24.2297L24.7466 25.2581L19.2716 14.5566L17.6436 15.3876L23.6832 27.2113C23.7507 27.3376 23.8459 27.4472 23.9615 27.5318C24.0772 27.6164 24.2104 27.6738 24.3514 27.6998C24.3995 27.707 24.4483 27.7098 24.497 27.7084C24.6164 27.7082 24.7346 27.6844 24.8448 27.6384C24.955 27.5924 25.055 27.5251 25.1392 27.4404L27.4354 25.1443C27.5514 25.0309 27.6349 24.8884 27.6772 24.7317C27.7194 24.575 27.7187 24.4098 27.6753 24.2534L27.6769 24.2551Z" fill="#B8C7E9"/>
<path d="M10.3777 29.2502C10.3347 29.2516 10.2917 29.2487 10.2493 29.2415C10.11 29.2206 9.97733 29.168 9.86151 29.0878C9.74568 29.0076 9.64979 28.9019 9.58119 28.7788L6.34243 22.9096L0.473178 19.6708C0.350091 19.6023 0.244374 19.5064 0.164162 19.3906C0.0839489 19.2747 0.0313801 19.142 0.0104986 19.0027C-0.0111921 18.863 0.000835706 18.7201 0.0455803 18.5859C0.0903249 18.4518 0.166488 18.3303 0.267722 18.2316L1.86985 16.6294C1.98385 16.5146 2.12666 16.4325 2.2833 16.3918C2.43994 16.3511 2.60465 16.3533 2.76016 16.3981L7.47271 17.6923L19.9484 3.05532C20.7155 2.161 21.6547 1.43012 22.7101 0.906149C23.7654 0.382175 24.9154 0.0758149 26.0916 0.00529382C26.511 -0.0197741 26.931 0.044385 27.3239 0.193538C27.7168 0.342692 28.0735 0.573447 28.3707 0.870586C28.6678 1.16772 28.8986 1.52449 29.0477 1.91735C29.1969 2.3102 29.261 2.73022 29.236 3.14969C29.1165 5.29205 28.2103 7.31488 26.6912 8.8302C26.5311 8.99324 26.3624 9.14768 26.1859 9.29288L11.5689 21.7766L12.8631 26.4805C12.9063 26.6372 12.9074 26.8025 12.8662 26.9597C12.825 27.1169 12.743 27.2604 12.6285 27.3757L11.0264 28.9778C10.9419 29.0651 10.8406 29.1343 10.7287 29.1814C10.6167 29.2285 10.4964 29.2524 10.375 29.2518L10.3777 29.2502ZM2.41773 18.6516L7.45599 21.4277C7.60768 21.5109 7.73247 21.6357 7.81567 21.7874L10.5918 26.8257L10.9601 26.4574L9.64914 21.7022C9.60196 21.5351 9.60436 21.3578 9.65606 21.192C9.70775 21.0262 9.80652 20.8789 9.94034 20.7682L25.0028 7.91616C25.1398 7.79645 25.2767 7.67619 25.397 7.54785C26.5985 6.34695 27.3153 4.74545 27.4106 3.04939C27.4194 2.88707 27.3942 2.72471 27.3367 2.57269C27.2791 2.42068 27.1904 2.28237 27.0762 2.16662C26.9645 2.04703 26.8268 1.95469 26.6738 1.89672C26.5207 1.83875 26.3564 1.81671 26.1935 1.83229C25.2628 1.88747 24.3528 2.12992 23.518 2.54513C22.6832 2.96034 21.9409 3.53976 21.3353 4.24869L8.48381 19.3112C8.37151 19.4429 8.2242 19.5402 8.05891 19.5918C7.89362 19.6433 7.71711 19.647 7.54982 19.6024L2.78604 18.2914L2.41773 18.6516Z" fill="#0036B0"/>
<path d="M27.7276 12.7651H23.8892V16.1668H27.7276V12.7651Z" fill="white"/>
<path d="M31.2324 16.1669H20.3853V29.3533H31.2324V16.1669Z" fill="white"/>
<path d="M28.9817 29.947C28.9464 30.043 28.9282 30.1445 28.9277 30.2468C28.9277 30.4854 29.0225 30.7143 29.1913 30.883C29.36 31.0518 29.5888 31.1466 29.8275 31.1466C30.0661 31.1466 30.295 31.0518 30.4637 30.883C30.6324 30.7143 30.7272 30.4854 30.7272 30.2468C30.7277 30.1264 30.7044 30.0071 30.6587 29.8958C30.5274 29.9311 30.392 29.9492 30.2559 29.9497L28.9817 29.947Z" fill="#E82D56"/>
<path d="M21.2159 29.8931C21.1719 30.0049 21.1487 30.1239 21.1475 30.2441C21.1475 30.4827 21.2422 30.7116 21.411 30.8803C21.5797 31.0491 21.8086 31.1439 22.0472 31.1439C22.2858 31.1439 22.5147 31.0491 22.6834 30.8803C22.8522 30.7116 22.9469 30.4827 22.9469 30.2441C22.9465 30.1418 22.9282 30.0404 22.893 29.9443H21.6274C21.4886 29.9452 21.3503 29.928 21.2159 29.8931V29.8931Z" fill="#E82D56"/>
<path d="M29.8185 29.3446C29.6324 29.3446 29.4509 29.4022 29.299 29.5096C29.1471 29.617 29.0322 29.7689 28.9702 29.9443H30.2385C30.3746 29.9438 30.51 29.9257 30.6414 29.8904C30.5738 29.728 30.4595 29.5894 30.313 29.4922C30.1664 29.395 29.9943 29.3437 29.8185 29.3446V29.3446Z" fill="#0036B0"/>
<path d="M22.0387 29.3446C21.8628 29.3446 21.6908 29.3967 21.5445 29.4943C21.3981 29.5919 21.2839 29.7306 21.2163 29.893C21.3477 29.9283 21.4831 29.9465 21.6191 29.947H22.888C22.8249 29.7718 22.7097 29.6202 22.5578 29.5125C22.406 29.4049 22.2248 29.3462 22.0387 29.3446V29.3446Z" fill="#0036B0"/>
<path d="M24.1378 18.5746H22.9385V26.9541H24.1378V18.5746Z" fill="#B8C7E9"/>
<path d="M26.5284 18.5746H25.3291V26.9541H26.5284V18.5746Z" fill="#B8C7E9"/>
<path d="M28.9268 18.5746H27.7275V26.9541H28.9268V18.5746Z" fill="#B8C7E9"/>
<path d="M30.2214 15.6097H21.6364C21.4136 15.6095 21.1929 15.6533 20.987 15.7385C20.781 15.8236 20.5939 15.9486 20.4364 16.1062C20.2788 16.2637 20.1538 16.4508 20.0687 16.6568C19.9835 16.8627 19.9397 17.0834 19.9399 17.3062V28.2563C19.9397 28.4792 19.9835 28.6999 20.0687 28.9058C20.1538 29.1118 20.2788 29.2988 20.4364 29.4564C20.5939 29.614 20.781 29.7389 20.987 29.8241C21.1929 29.9093 21.4136 29.9531 21.6364 29.9528H30.2214C30.4442 29.9531 30.6649 29.9093 30.8708 29.8241C31.0768 29.7389 31.2639 29.614 31.4215 29.4564C31.579 29.2988 31.704 29.1118 31.7892 28.9058C31.8743 28.6999 31.9181 28.4792 31.9179 28.2563V17.3062C31.9169 16.8566 31.7378 16.4257 31.4199 16.1077C31.1019 15.7898 30.671 15.6107 30.2214 15.6097ZM30.7186 27.6049C30.7184 27.8457 30.6227 28.0766 30.4524 28.2469C30.2822 28.4172 30.0513 28.5129 29.8105 28.513H22.0565C21.8157 28.5129 21.5848 28.4172 21.4145 28.2469C21.2443 28.0766 21.1486 27.8457 21.1484 27.6049V17.9571C21.1486 17.7163 21.2443 17.4854 21.4145 17.3152C21.5848 17.1449 21.8157 17.0492 22.0565 17.049H29.8083C30.0491 17.0492 30.28 17.1449 30.4503 17.3152C30.6205 17.4854 30.7163 17.7163 30.7164 17.9571L30.7186 27.6049Z" fill="#0036B0"/>
<path d="M24.7291 13.5277H27.1196V15.9182H28.3189V12.928C28.3194 12.8491 28.3043 12.7709 28.2743 12.698C28.2443 12.625 28.2002 12.5587 28.1444 12.5029C28.0886 12.4471 28.0223 12.403 27.9493 12.373C27.8764 12.343 27.7982 12.3279 27.7193 12.3284H24.1294C24.0506 12.3279 23.9724 12.343 23.8994 12.373C23.8264 12.403 23.7601 12.4471 23.7043 12.5029C23.6485 12.5587 23.6044 12.625 23.5744 12.698C23.5445 12.7709 23.5293 12.8491 23.5298 12.928V15.9182H24.7291V13.5277Z" fill="#0036B0"/>
</svg>
