<svg width="18" height="18" viewBox="0 0 18 18" fill="none" xmlns="http://www.w3.org/2000/svg">
<path d="M15.4909 1.82393H14.6689V0.453003H13.2979V1.82393H4.24969V0.453003H2.87876V1.82393H2.05608C1.51098 1.82458 0.988382 2.04141 0.602934 2.42686C0.217485 2.81231 0.000652823 3.33491 0 3.88001L0 15.9439C0.000652823 16.489 0.217485 17.0116 0.602934 17.3971C0.988382 17.7825 1.51098 17.9994 2.05608 18H15.4909C16.036 17.9994 16.5586 17.7825 16.9441 17.3971C17.3295 17.0116 17.5463 16.489 17.547 15.9439V3.88001C17.5463 3.33491 17.3295 2.81231 16.9441 2.42686C16.5586 2.04141 16.036 1.82458 15.4909 1.82393V1.82393ZM16.1761 15.9464C16.1757 16.128 16.1035 16.3021 15.975 16.4305C15.8466 16.5589 15.6725 16.6312 15.4909 16.6315H2.05608C1.87447 16.6312 1.70039 16.5589 1.57196 16.4305C1.44354 16.3021 1.37125 16.128 1.37093 15.9464V6.8963H16.1767L16.1761 15.9464ZM16.1761 5.52784H1.37093V3.88001C1.37125 3.6984 1.44354 3.52432 1.57196 3.39589C1.70039 3.26747 1.87447 3.19518 2.05608 3.19486H2.87876V4.56578H4.24969V3.19486H13.2979V4.56578H14.6689V3.19486H15.4915C15.6732 3.19518 15.8472 3.26747 15.9757 3.39589C16.1041 3.52432 16.1764 3.6984 16.1767 3.88001L16.1761 5.52784Z" fill="#0EACC1"/>
<path d="M3.97591 8.33569H2.60498V9.70662H3.97591V8.33569Z" fill="#0EACC1"/>
<path d="M6.71785 8.33569H5.34692V9.70662H6.71785V8.33569Z" fill="#0EACC1"/>
<path d="M3.97591 11.0775H2.60498V12.4484H3.97591V11.0775Z" fill="#0EACC1"/>
<path d="M6.71785 11.0775H5.34692V12.4484H6.71785V11.0775Z" fill="#0EACC1"/>
</svg>
