<svg width="31" height="31" viewBox="0 0 31 31" fill="none" xmlns="http://www.w3.org/2000/svg">
<rect width="31" height="31" rx="8" fill="#E82D56"/>
<path d="M22.9494 17.0646C22.9494 18.5544 22.0554 18.6609 21.8852 18.6609H8.80074L11.6156 15.846L10.8653 15.0905L7.14058 18.8152C6.93426 19.0227 6.93426 19.3579 7.14058 19.5654L10.8653 23.2902L11.6156 22.5399L8.80074 19.7251H21.8852C22.6195 19.7251 24.0136 19.193 24.0136 17.0646V15.4682H22.9494V17.0646Z" fill="white"/>
<path d="M8.05151 13.8718C8.05151 12.3819 8.94544 12.2755 9.11572 12.2755H22.2001L19.3853 15.0903L20.1356 15.8406L23.8603 12.1159C24.0666 11.9083 24.0666 11.5731 23.8603 11.3656L20.1356 7.64087L19.38 8.39646L22.2001 11.2113H9.11572C8.38142 11.2113 6.9873 11.7434 6.9873 13.8718V15.4681H8.05151V13.8718Z" fill="white"/>
</svg>
