<svg width="25" height="21" viewBox="0 0 25 21" fill="none" xmlns="http://www.w3.org/2000/svg">
<path d="M24.2762 10.1569C24.2553 9.51013 23.9102 8.91917 23.3605 8.57862C22.7597 8.1804 22.0529 7.97346 21.3304 7.98962L14.8667 8.00756L13.8084 8.00978L13.8112 8.01108L10.9896 8.01609L10.1017 8.01628L10.0948 8.01647L7.41364 8.03265L4.15711 5.37515C4.02356 5.26894 3.83368 5.2619 3.69496 5.36339L2.00581 6.59011C1.91828 6.65442 1.86067 6.75638 1.8528 6.86793C1.84215 6.97819 1.88365 7.08561 1.95872 7.16459L4.16616 9.56429L3.44993 9.55966C3.24243 9.56137 3.07389 9.72691 3.06873 9.9346L3.06828 11.9743C3.06838 12.076 3.1082 12.1725 3.17899 12.2461C3.21151 12.2782 3.24791 12.3019 3.2869 12.3201C3.33704 12.3434 3.39236 12.3556 3.446 12.3568L16.3821 12.3463L17.2898 11.5862L4.04988 11.5908C3.9207 11.5917 3.82018 11.4873 3.81801 11.3609L3.81605 10.5569C3.81517 10.4277 3.92085 10.3244 4.04595 10.325L5.00531 10.3242C5.15657 10.3268 5.29568 10.2391 5.3592 10.1026C5.42271 9.96609 5.40027 9.80316 5.30085 9.68912L3.01648 7.19262C2.90016 7.06394 2.91925 6.86273 3.06075 6.76254L3.72099 6.29042C3.82744 6.21459 3.97055 6.22019 4.07178 6.30119L7.04054 8.69601C7.10667 8.7505 7.19134 8.77974 7.27801 8.7828L12.4761 8.77567L13.5674 8.77526L15.3981 8.77334L21.3288 8.76487C21.8933 8.75314 22.4475 8.90939 22.9207 9.21773C23.2617 9.41707 23.4818 9.76688 23.5121 10.1605C23.5142 10.9205 22.5153 11.5671 21.336 11.5672L16.4426 11.5865L15.777 12.3468L21.3423 12.3326C22.9847 12.3277 24.2801 11.3718 24.2762 10.1569Z" fill="#0EACC1"/>
<path d="M9.5985 6.25035C9.35432 6.31631 9.244 6.59705 9.37378 6.81332L9.63126 7.22118L10.0959 8.0067L10.9838 8.00651L10.4413 7.08985L10.0252 6.41842C9.93595 6.27524 9.76364 6.2086 9.5985 6.25035Z" fill="#0EACC1"/>
<path d="M11.5623 5.01606L10.9471 4.25538L11.6031 3.72703C11.8141 3.55755 12.1202 3.59156 12.291 3.79981C12.4604 4.01084 12.4264 4.31693 12.2182 4.48771L11.5623 5.01606Z" fill="#0EACC1"/>
<path d="M13.2864 6.89594L12.6713 6.13526L13.3272 5.60692C13.5382 5.43743 13.8443 5.47144 14.0151 5.67969C14.1846 5.89072 14.1506 6.19681 13.9423 6.3676L13.2864 6.89594Z" fill="#0EACC1"/>
<path d="M13.52 6.5981L10.1963 3.11642C9.60346 2.51181 9.03266 2.25294 8.49676 2.35595C8.03418 2.47615 7.65015 2.79894 7.45758 3.23456C7.40981 3.34448 7.41756 3.47347 7.48096 3.57752L8.74807 5.72598C8.83472 5.87474 9.0113 5.94675 9.17625 5.89814C9.41764 5.83088 9.53075 5.55144 9.40376 5.33646L8.51055 3.82625C8.42313 3.65003 8.33484 3.34462 8.65185 3.18041C8.65185 3.18041 8.916 3.04241 9.38967 3.41534C9.47271 3.48448 9.55872 3.56179 9.64791 3.65412L12.6003 6.73938L13.8067 7.99889L14.865 7.99666L13.52 6.5981Z" fill="#0EACC1"/>
<path d="M24.2167 16.9728H3.70667C3.32264 16.9728 3.00928 16.6594 3.00928 16.2754C3.00928 15.8914 3.32264 15.578 3.70667 15.578H24.2167C24.6007 15.578 24.9141 15.8914 24.9141 16.2754C24.9141 16.6594 24.6007 16.9728 24.2167 16.9728Z" fill="#0EACC1"/>
</svg>
