<svg width="16" height="16" viewBox="0 0 16 16" fill="none" xmlns="http://www.w3.org/2000/svg">
<path d="M15.5887 13.7009L12.118 10.2302C12.0994 10.2116 12.0781 10.199 12.0587 10.1816C12.953 8.82239 13.3112 7.17973 13.0639 5.57163C12.8167 3.96352 11.9815 2.50435 10.7202 1.47664C9.45885 0.448936 7.86105 -0.0742072 6.23615 0.00850064C4.61124 0.0912084 3.07482 0.773884 1.92435 1.92435C0.773884 3.07482 0.0912084 4.61124 0.00850064 6.23615C-0.0742072 7.86105 0.448936 9.45885 1.47664 10.7202C2.50435 11.9815 3.96352 12.8167 5.57163 13.0639C7.17973 13.3112 8.82239 12.953 10.1816 12.0587C10.1987 12.0781 10.2116 12.0994 10.2298 12.118L13.7006 15.5887C13.9516 15.8361 14.2902 15.9742 14.6426 15.9729C14.995 15.9716 15.3326 15.831 15.5818 15.5818C15.831 15.3326 15.9716 14.995 15.9729 14.6426C15.9742 14.2902 15.8361 13.9516 15.5887 13.7006V13.7009ZM6.57212 10.8634C5.72335 10.8635 4.89362 10.6118 4.18787 10.1403C3.48211 9.66884 2.93203 8.99864 2.60718 8.21449C2.28234 7.43035 2.19733 6.56748 2.36289 5.73502C2.52846 4.90256 2.93717 4.13789 3.53734 3.53772C4.13751 2.93755 4.90218 2.52884 5.73464 2.36327C6.5671 2.19771 7.42997 2.28272 8.21411 2.60756C8.99826 2.93241 9.66846 3.48249 10.14 4.18825C10.6115 4.894 10.8631 5.72373 10.863 6.5725C10.8629 7.71048 10.4108 8.80183 9.60613 9.60651C8.80145 10.4112 7.7101 10.8633 6.57212 10.8634V10.8634Z" fill="white"/>
</svg>
