<svg width="22" height="19" viewBox="0 0 22 19" fill="none" xmlns="http://www.w3.org/2000/svg">
<path d="M14.1936 8.45171L14.4486 7.50854L15.2627 7.72667C15.5239 7.79733 15.6775 8.06461 15.6068 8.32575C15.5362 8.58689 15.2689 8.7405 15.0077 8.66984L14.1936 8.45171Z" fill="#0EACC1"/>
<path d="M13.0845 11.4747L13.3395 10.5315L14.1536 10.7496C14.4147 10.8203 14.5684 11.0876 14.4977 11.3487C14.427 11.6098 14.1597 11.7634 13.8986 11.6928L13.0845 11.4747Z" fill="#0EACC1"/>
<path d="M15.2842 4.38399C15.0815 4.31641 14.8603 4.42701 14.7927 4.62977L13.3518 8.91857L11.6406 14.0061C11.4532 14.5376 11.2197 14.8572 10.9586 14.9247C10.7988 14.9555 10.6298 14.9247 10.4916 14.8356L10.9708 9.81566L11.2596 6.79568C11.2811 6.5837 11.1245 6.39629 10.9125 6.37786C10.7005 6.35635 10.5131 6.51304 10.4946 6.72502L10.3963 7.73577L10.295 8.82948L10.298 8.82641L10.1751 10.1198L9.70816 14.9893C9.69588 15.1091 9.74503 15.2289 9.83412 15.3118C10.1198 15.5484 10.4762 15.6836 10.8449 15.6959C10.9463 15.6959 11.0476 15.6836 11.146 15.659C11.6744 15.5207 12.083 15.0507 12.3626 14.2458L14.2796 8.56834L14.9217 6.66357L15.2566 5.67432L15.5239 4.88169C15.5976 4.67278 15.487 4.45158 15.2842 4.38399Z" fill="#0EACC1"/>
<path d="M21.7451 1.08444C21.4533 0.506869 20.891 0.116699 20.249 0.0398939C19.5362 -0.0676333 18.8081 0.0429661 18.1599 0.362476L12.3073 3.10596L11.3488 3.5545H11.3518L8.79577 4.74959L7.99085 5.1244L7.98471 5.12747L5.56074 6.2734L1.48699 5.23807C1.32109 5.19813 1.14598 5.27186 1.06303 5.4224L0.0492013 7.24729C-0.00302624 7.34253 -0.0122429 7.45927 0.0276958 7.56373C0.0645623 7.66818 0.147512 7.74806 0.248895 7.788L3.26273 9.03224L2.61142 9.33025C2.42402 9.41934 2.34107 9.64054 2.42402 9.83102L3.28423 11.6805C3.32725 11.7726 3.40405 11.8433 3.49929 11.8802C3.5423 11.8955 3.58531 11.9017 3.62832 11.9017C3.68362 11.9017 3.73892 11.8894 3.78808 11.8679L10.2919 8.82948L10.3718 7.9539L4.01235 10.9186C3.8956 10.9739 3.76043 10.9216 3.70513 10.808L3.36411 10.0799C3.30881 9.96312 3.36104 9.82487 3.47471 9.77264L4.34414 9.36711C4.48239 9.30567 4.57149 9.16742 4.57149 9.01688C4.57149 8.86634 4.48239 8.72809 4.34414 8.66665L1.21971 7.36711C1.05996 7.29952 0.992369 7.10904 1.07839 6.9585L1.47778 6.2519C1.54229 6.13822 1.6744 6.08292 1.80036 6.11365L5.50237 7.03224C5.58532 7.05374 5.67441 7.04452 5.75429 7.01073L10.464 4.81103L11.4532 4.3502L13.1122 3.576L18.4855 1.06601C18.9924 0.817162 19.5608 0.724996 20.1199 0.804873C20.5132 0.84174 20.8603 1.06601 21.0539 1.4101C21.3765 2.09827 20.7436 3.10596 19.6745 3.60365L15.2658 5.67125L14.931 6.6605L20.0032 4.2949C21.4901 3.59751 22.2613 2.18429 21.7451 1.08444Z" fill="#0EACC1"/>
<path d="M6.78944 3.7357C6.5959 3.89852 6.61433 4.1996 6.82324 4.34092L7.22877 4.60206L7.98146 5.11819L8.78638 4.74338L7.90773 4.14123L7.2472 3.70805C7.10588 3.61588 6.92155 3.62817 6.78944 3.7357Z" fill="#0EACC1"/>
<path d="M8.04906 1.78793L7.17041 1.35782L7.54215 0.602055C7.66196 0.359351 7.95382 0.26104 8.19653 0.377784C8.43923 0.4976 8.53754 0.789459 8.4208 1.03216L8.04906 1.78793Z" fill="#0EACC1"/>
<path d="M10.4055 2.76485L9.52686 2.33475L9.89859 1.57898C10.0184 1.33628 10.3103 1.23797 10.553 1.35471C10.7957 1.47453 10.894 1.76639 10.7772 2.00909L10.4055 2.76485Z" fill="#0EACC1"/>
<path d="M10.4915 2.39622L6.00916 0.641989C5.21653 0.343984 4.5898 0.350129 4.1474 0.669638C3.77874 0.973787 3.56676 1.42847 3.57597 1.90467C3.57904 2.02448 3.64049 2.13815 3.74187 2.20574L5.79718 3.61896C5.9385 3.71727 6.12898 3.70805 6.25801 3.59438C6.44849 3.43155 6.43312 3.13048 6.22729 2.98916L4.78028 1.99683C4.62667 1.87394 4.41776 1.63431 4.63588 1.35167C4.63588 1.35167 4.81714 1.11511 5.40394 1.25336C5.50839 1.28101 5.61899 1.3148 5.73881 1.36089L9.71731 2.91235L11.3425 3.54523L12.301 3.09668L10.4915 2.39622Z" fill="#0EACC1"/>
<path d="M21.2074 18.4118H0.697391C0.313365 18.4118 0 18.0984 0 17.7144C0 17.3303 0.313365 17.017 0.697391 17.017H21.2074C21.5915 17.017 21.9048 17.3303 21.9048 17.7144C21.9048 18.0984 21.5915 18.4118 21.2074 18.4118Z" fill="#0EACC1"/>
</svg>
