<svg width="12" height="18" viewBox="0 0 12 18" fill="none" xmlns="http://www.w3.org/2000/svg">
<g clip-path="url(#clip0)">
<path d="M7.679 17.773V17.733H3.544V17.773H1.772V17.733H0.886C0.662619 17.7436 0.444099 17.6655 0.278116 17.5156C0.112133 17.3657 0.0121568 17.1563 0 16.933L0 10.416C0.021759 9.47239 0.308402 8.55394 0.827202 7.76549C1.346 6.97703 2.07605 6.35034 2.934 5.95697C2.57378 5.65003 2.28364 5.26935 2.08318 4.84064C1.88271 4.41194 1.7766 3.94521 1.772 3.47197C1.82426 2.5036 2.25728 1.59517 2.97662 0.944766C3.69596 0.294363 4.64327 -0.0452533 5.612 -2.69497e-05C6.58056 -0.0449816 7.52762 0.294757 8.24674 0.945132C8.96586 1.59551 9.39873 2.50378 9.451 3.47197C9.44627 3.94518 9.3401 4.41188 9.13965 4.84056C8.93919 5.26924 8.64912 5.64994 8.289 5.95697C9.1468 6.35054 9.87673 6.97727 10.3955 7.76569C10.9143 8.5541 11.201 9.47245 11.223 10.416V16.933C11.2108 17.1563 11.1109 17.3657 10.9449 17.5156C10.7789 17.6655 10.5604 17.7436 10.337 17.733H9.451V17.773H7.679ZM1.772 10.416V16.131H9.451V10.416C9.39873 9.44778 8.96586 8.53951 8.24674 7.88913C7.52762 7.23876 6.58056 6.89902 5.612 6.94397C4.64327 6.89875 3.69596 7.23836 2.97662 7.88877C2.25728 8.53917 1.82426 9.4476 1.772 10.416V10.416ZM3.544 3.47197C3.57195 3.99339 3.80494 4.4826 4.19215 4.83291C4.57937 5.18323 5.0894 5.36622 5.611 5.34197C6.1326 5.36622 6.64263 5.18323 7.02985 4.83291C7.41706 4.4826 7.65005 3.99339 7.678 3.47197C7.65056 2.95038 7.41793 2.46082 7.03088 2.11011C6.64382 1.7594 6.13376 1.57601 5.612 1.59997C5.0899 1.57547 4.57933 1.75861 4.19184 2.10938C3.80434 2.46014 3.57144 2.95002 3.544 3.47197V3.47197Z" fill="#0EACC1"/>
</g>
<defs>
<clipPath id="clip0">
<rect width="11.223" height="17.773" fill="white"/>
</clipPath>
</defs>
</svg>
